<svg aria-hidden="true" style="width:0;height:0;position:absolute;overflow:hidden" xmlns="http://www.w3.org/2000/svg"><defs><symbol id="author" viewBox="0 0 27 32"><path d="M-.102 31.84h26.785c.133-3.061-.086-8.139-1.964-10.556l-.068-.087-4.104-2.065c.089-.301.133-.577.151-.78a1.433 1.433 0 0 0-.1-.679c-.677-1.623-2.11-2.477-2.898-2.842.24-.485.395-1.005.47-1.537.446-.126.805-.48.922-.953l.479-1.95a1.318 1.318 0 0 0-.151-1.004 1.296 1.296 0 0 0-.294-.335c1.351-3.074-.911-5.972-1.035-6.125C15.641.273 12.546.769 12.383.799c-4.466.937-6.19 4.367-5.217 8.389-.288.32-.409.766-.302 1.203l.481 1.952c.117.469.473.822.916.95a5.033 5.033 0 0 0 1.152 2.565v1.546c-6.409 3.289-2.348 1.191-7.484 3.794-.01.049-2.41 2.604-2.053 10.179l.022.463zm25.854-.972h-4.408v-1.856l2.916-6.688c1.461 2.429 1.515 7.067 1.493 8.544zM19.735 18.27c-.17 1.958-1.242 1.366-1.903 2.875-.52-.573-.677-1.261-.537-1.997.253-1.351-.57-1.753-.367-3.172l.031-.033v-.004c.017-.02.18-.213.227-.274 1.744.762 2.584 2.179 2.55 2.606zm-9.356-1.539a4.957 4.957 0 0 0 5.574.075c.112 1.116.547 1.34.393 2.161a3.558 3.558 0 0 0-.054.45l-3.002 3.39-3.838-4.335.926-.485V16.73zm-1.207-4.15V7.398c.467-.866 1.104-1.494 1.896-1.87 2.12 1.202 4.56 2.996 6.197 4.801-.002 2.299.006 2.305-.009 2.494l-.001.012c-.128 2.088-1.841 3.818-4.038 3.818-2.136 0-3.909-1.68-4.037-3.839a2.588 2.588 0 0 1-.008-.234zm-.598 6.36 4.716 5.327 3.166-3.576c.072.209.174.406.29.597L13.29 25.62l-5.154-6.459.438-.22zM18.23 11.8v-1.501l.36-.414c.02.76.102-.137-.36 1.914zM12.562 1.754c.192.012 2.765-.392 4.799 1.808.08.101 1.736 2.238 1.071 4.577-.228-1.041-.624-2.374-1.252-3.01l-.686.684c.619.628 1.026 2.542 1.181 3.534-2.84-2.978-6.504-4.863-6.555-4.895-.184.115-1.734.41-2.86 2.603l-.054.105v1.611l-.142.002c-.716-3.461.655-6.211 4.497-7.018zM7.963 9.772l.244.989v1.04l-.405-1.643c-.059-.245.122-.338.161-.386zm-.71 9.834 6.037 7.566 4.085-5.119c.444.398.658.455 1.6.94l-.318-1.08c-.081-.274.239-.714.431-.916a2.94 2.94 0 0 0 1.058-.979l3.333 1.677-3.101 7.115v2.059H6.202V28.81l-3.103-7.114 4.153-2.089zm-4.932 2.721 2.916 6.686v1.855H.829c-.022-1.476.033-6.112 1.492-8.542z"/></symbol><symbol id="guarantee" viewBox="0 0 27 32"><path d="M.529 13.737c0 .349-.529.349-.529 0C0 6.319 6.004.303 13.407.303c7.406 0 13.407 6.016 13.407 13.434 0 .349-.525.349-.525 0 0-5.014-8.223-5.017-8.223 0 0 .349-.541.349-.541 0 0-5.001-8.235-5.001-8.235 0 0 .349-.541.349-.541 0 0-4.992-8.219-5.027-8.219 0zm8.267-1.947c.142-2.886.595-5.474 1.253-7.45.525-1.57 1.19-2.762 1.943-3.432C6.339 1.526 1.763 5.821.74 11.39c1.946-2.813 6.441-2.588 8.055.4zm8.687-.13c-.146-2.775-.586-5.258-1.218-7.152-1.633-4.9-4.083-4.9-5.716 0-.633 1.893-1.07 4.377-1.219 7.152 1.757-2.991 6.396-2.991 8.153 0zm8.59-.27C25.054 5.821 20.477 1.527 14.821.908c.756.669 1.418 1.862 1.943 3.432.658 1.976 1.111 4.564 1.253 7.45 1.624-3.003 6.131-3.181 8.055-.4zM11.648 19.884v-2.728c-.491.327-.877.831-.877 1.446 0 .599.392.996.877 1.282zm.528.847c-.94-.431-1.931-.936-1.931-2.128 0-1.231.934-1.846 1.931-2.306v4.435zM15.166 24v2.759c.497-.33.886-.837.886-1.453 0-.606-.399-1.015-.886-1.307zm-.525-.85c.943.438 1.94.958 1.94 2.157 0 1.234-.94 1.849-1.94 2.306v-4.462z"/><path d="M15.166 14.051c2.165.501 4.39 2.125 4.39 4.551 0 2.077-3.504 2.001-3.504 0 0-.618-.389-1.126-.886-1.453v3.882c2.003.656 4.396 1.833 4.396 4.275 0 2.429-2.225 4.05-4.396 4.548-.009 2.312-3.513 2.309-3.519-.003-1.234-.285-2.307-.863-3.083-1.627-.813-.806-1.295-1.817-1.295-2.918 0-2.046 3.5-2.046 3.5 0 0 .612.386 1.116.877 1.443V22.87c-1.988-.644-4.393-1.855-4.393-4.275 0-2.429 2.225-4.05 4.393-4.548.01-2.312 3.513-2.309 3.519.003zm-2.991.006v.422c-2.06.409-4.396 1.732-4.396 4.117 0 2.293 2.564 3.321 4.396 3.888v5.125c-.991-.454-1.931-1.066-1.931-2.303 0-1.351-2.45-1.351-2.45 0 0 .955.424 1.836 1.139 2.54.908.901 2.01 1.329 3.241 1.573v.425c0 1.627 2.466 1.627 2.466 0v-.422c2.067-.412 4.393-1.735 4.393-4.117 0-2.315-2.557-3.311-4.393-3.891v-5.122c.994.454 1.94 1.066 1.94 2.309 0 1.316 2.447 1.37 2.447 0 0-2.382-2.323-3.707-4.387-4.12v-.425c0-1.627-2.466-1.627-2.466 0z"/></symbol><symbol id="teaching" viewBox="0 0 32 32"><path d="M29.566.029H14.149c-1.004 0-1.82.816-1.82 1.818v6.376L.875 13.026a.372.372 0 0 0-.048.663l1.461.873v9.307a1.681 1.681 0 0 0-1.307 1.637v.897c0 .206.167.373.373.373H3.97a.373.373 0 0 0 .373-.373v-.897c0-.798-.561-1.465-1.308-1.636v-8.862l1.155.691c-.035.266-.005-.464-.017 4.333 0 1.577 4.043 2.422 8.156 2.47v7.263a1.82 1.82 0 0 0 1.82 1.816h15.417a1.82 1.82 0 0 0 1.818-1.817c0 .05-.002-1.539 0-27.917 0-.989-.819-1.819-1.817-1.819zM3.597 25.507v.524h-1.87v-.524a.935.935 0 1 1 1.87 0zm25.969 5.327H14.149c-.37 0-.697-.187-.89-.471a1.062 1.062 0 0 1-.183-.598v-2.518h17.56v2.519c0 .584-.487 1.068-1.07 1.068zm1.07-4.333H13.075v-3.997c2.008-.023 8.161-.465 8.161-2.472-.002-3.013.005-4.235-.009-4.339l3.349-2.004a.371.371 0 0 0-.048-.663L13.075 8.223V5.111h17.561v21.391zm-17.934-8.943c-2.069 0-6.053.267-7.783 1.396.011-3.453-.12-3.228.306-3.521 1.075-.791 4.15-1.343 7.477-1.343 1.451 0 7.788.399 7.788 1.739v3.126c-1.747-1.14-5.71-1.396-7.788-1.396zm.374-15.711c0-.591.481-1.071 1.072-1.071h15.417c.592 0 1.07.487 1.07 1.071v2.518h-17.56V1.847zm-.374 7.028 10.858 4.553-2.691 1.609c-1.43-1.417-6.162-1.692-8.168-1.692-2.008 0-6.74.276-8.168 1.692l-2.691-1.609 10.859-4.553zM4.919 20.032c0-.603 2.673-1.729 7.783-1.729 5.113 0 7.788 1.126 7.788 1.729s-2.675 1.729-7.788 1.729c-5.11 0-7.783-1.126-7.783-1.729z"/><path d="M21.856 27.809c-.68 0-1.234.553-1.234 1.232a1.235 1.235 0 0 0 2.468 0c0-.68-.553-1.232-1.234-1.232zm0 1.72a.489.489 0 1 1 .001-.977.489.489 0 0 1-.001.977zM23.279 2.198h-2.846v.745h2.846v-.745z"/></symbol></defs></svg>