<svg aria-hidden="true" style="width:0;height:0;position:absolute;overflow:hidden" xmlns="http://www.w3.org/2000/svg"><defs><symbol id="check-fire" viewBox="0 0 26 32"><path d="M22.642 16.003c-.275-.613-.654-1.216-1.208-1.912-1.398-1.749-1.824-5.649-1.829-5.686a.471.471 0 0 0-.327-.397.48.48 0 0 0-.502.136c-1.668 1.856-.967 4.723-.588 5.869.104.313.218.683.298 1.057.616 3.025-.573 4.396-.853 4.672-.27.075-.455.037-.625-.145-.588-.641-.782-2.74-.507-5.476a5.543 5.543 0 0 0-.038-1.524c-.58-3.362-2.704-5.519-3.245-6.275C11.73 4.134 11.579.491 11.574.458a.457.457 0 0 0-.261-.402.476.476 0 0 0-.479.033C8.351 1.768 8.565 5.813 8.91 8.071c.081.524.237 1.057.507 1.73.962 2.408-.19 5.518-.199 5.546s-.019.051-.024.079c-.147.767-.393 1.225-.668 1.225a.341.341 0 0 1-.09-.014c-.336-.07-.512-.426-.516-.734-.019-3.989-4.041-5.331-4.084-5.345a.473.473 0 0 0-.502.14.456.456 0 0 0-.066.514c.047.098.199.528.095 2.048a17.375 17.375 0 0 1-.744 4.012c-.957 3.105-.805 6.046-.796 6.187.736 7.964 12.245 9.359 19.075 4.873.748-.491 1.36-1.052 1.81-1.669 2.521-3.46 1.038-8.16-.066-10.657zM5.135 23.611a.468.468 0 0 1-.445.491h-.028a.47.47 0 0 1-.474-.44 16.729 16.729 0 0 1 .019-2.174.478.478 0 0 1 .507-.435c.261.019.46.243.441.5a14.999 14.999 0 0 0-.019 2.058zm.233-4.143a.47.47 0 0 1-.469.412c-.019 0-.038 0-.062-.005a.472.472 0 0 1-.412-.519l.227-1.805a.478.478 0 0 1 .531-.407.47.47 0 0 1 .412.524l-.227 1.8zM19.437 6.397a.469.469 0 0 1-.396-.533c.03-.19.201-1.163.665-1.652.179-.189.478-.198.67-.021s.2.472.021.661c-.197.207-.364.8-.42 1.154a.474.474 0 0 1-.541.39zM2.164 8.727c-.091-.348-.316-.921-.532-1.109-.197-.17-.217-.466-.044-.66s.471-.214.669-.043c.511.442.777 1.393.826 1.579a.475.475 0 0 1-.918.233z"/></symbol><symbol id="icon-fire" viewBox="0 0 26 32"><path fill="#ff6b09" style="fill:var(--color1,#ff6b09)" d="M22.642 16.003c-.275-.613-.654-1.216-1.208-1.912-1.398-1.749-1.824-5.649-1.829-5.686a.471.471 0 0 0-.327-.397.48.48 0 0 0-.502.136c-1.668 1.856-.967 4.723-.588 5.869.104.313.218.683.298 1.057.616 3.025-.573 4.396-.853 4.672-.27.075-.455.037-.625-.145-.588-.641-.782-2.74-.507-5.476a5.543 5.543 0 0 0-.038-1.524c-.58-3.362-2.704-5.519-3.245-6.275C11.73 4.134 11.579.491 11.574.458a.457.457 0 0 0-.261-.402.476.476 0 0 0-.479.033C8.351 1.768 8.565 5.813 8.91 8.071c.081.524.237 1.057.507 1.73.962 2.408-.19 5.518-.199 5.546s-.019.051-.024.079c-.147.767-.393 1.225-.668 1.225a.341.341 0 0 1-.09-.014c-.336-.07-.512-.426-.516-.734-.019-3.989-4.041-5.331-4.084-5.345a.473.473 0 0 0-.502.14.456.456 0 0 0-.066.514c.047.098.199.528.095 2.048a17.375 17.375 0 0 1-.744 4.012c-.957 3.105-.805 6.046-.796 6.187.736 7.964 12.245 9.359 19.075 4.873.748-.491 1.36-1.052 1.81-1.669 2.521-3.46 1.038-8.16-.066-10.657zM5.135 23.611a.468.468 0 0 1-.445.491h-.028a.47.47 0 0 1-.474-.44 16.729 16.729 0 0 1 .019-2.174.478.478 0 0 1 .507-.435c.261.019.46.243.441.5a14.999 14.999 0 0 0-.019 2.058zm.233-4.143a.47.47 0 0 1-.469.412c-.019 0-.038 0-.062-.005a.472.472 0 0 1-.412-.519l.227-1.805a.478.478 0 0 1 .531-.407.47.47 0 0 1 .412.524l-.227 1.8zM19.437 6.397a.469.469 0 0 1-.396-.533c.03-.19.201-1.163.665-1.652.179-.189.478-.198.67-.021s.2.472.021.661c-.197.207-.364.8-.42 1.154a.474.474 0 0 1-.541.39zM2.164 8.727c-.091-.348-.316-.921-.532-1.109-.197-.17-.217-.466-.044-.66s.471-.214.669-.043c.511.442.777 1.393.826 1.579a.475.475 0 0 1-.918.233z"/></symbol><symbol id="icon-menu-open" viewBox="0 0 55 32"><path d="M0 32h54.857v-5.333H0V32zm0-13.333h54.857v-5.333H0v5.333zM0 0v5.333h54.857V0H0z"/></symbol><symbol id="icon-menu-close" viewBox="0 0 32 32"><path d="M13.401 16 0 29.401 2.599 32 16 18.599 29.401 32 32 29.401 18.599 16 32 2.599 29.401 0 16 13.401 2.599 0 0 2.599 13.401 16z"/></symbol><symbol id="icon-instagram" viewBox="0 0 32 32"><path style="fill:var(--color1,#000)" d="M31.452 5.724A5.827 5.827 0 0 0 26.276.548a96.718 96.718 0 0 0-20.553 0A5.827 5.827 0 0 0 .547 5.724a96.718 96.718 0 0 0 0 20.553 5.827 5.827 0 0 0 5.176 5.176c6.844.73 13.709.73 20.553 0a5.828 5.828 0 0 0 5.176-5.176c.73-6.844.73-13.708 0-20.553z"/><path style="fill:var(--color1,#000)" d="M29.712 6.881a5.17 5.17 0 0 0-4.593-4.593 85.795 85.795 0 0 0-18.238 0 5.171 5.171 0 0 0-4.593 4.593 85.795 85.795 0 0 0 0 18.238 5.17 5.17 0 0 0 4.593 4.593 85.795 85.795 0 0 0 18.238 0 5.17 5.17 0 0 0 4.593-4.593 85.795 85.795 0 0 0 0-18.238z"/><path style="fill:var(--color1,#000)" d="m.48 25.613.068.664a5.828 5.828 0 0 0 5.176 5.176c6.844.73 13.709.73 20.552 0a5.827 5.827 0 0 0 5.176-5.176c.024-.221.046-.442.069-.664H.48z"/><path style="fill:var(--color1,#000)" d="M31.452 26.276c.393-3.678.574-7.361.544-11.044l-7.314-7.314c-.914-1.043-2.249-1.694-3.817-1.751-3.225-.116-6.461-.11-9.687 0-2.679.092-4.553 1.893-5.033 4.54-.085.467-.136.941-.202 1.411v7.759c.037.252.091.502.108.755.107 1.61.769 2.989 1.828 3.922l7.443 7.443a96.755 96.755 0 0 0 10.954-.545 5.828 5.828 0 0 0 5.176-5.176z"/><path style="fill:var(--color1,#000)" d="M31.452 26.276a5.827 5.827 0 0 1-5.176 5.176 96.738 96.738 0 0 1-10.953.545l-7.432-7.432c.862.754 1.985 1.213 3.288 1.262 3.225.121 6.461.118 9.686.002 2.917-.106 5.028-2.264 5.119-5.181.097-3.097.097-6.202 0-9.3-.042-1.346-.514-2.53-1.297-3.426l7.31 7.31a96.729 96.729 0 0 1-.545 11.044z"/><path style="fill:var(--color1,#000)" d="M19.776 12.535a5.125 5.125 0 1 0-7.241 7.242l11.859 11.859a99.877 99.877 0 0 0 1.883-.182 5.827 5.827 0 0 0 5.176-5.176c.067-.627.128-1.255.182-1.883L19.776 12.536zM31.938 19.447l-9.544-9.544a1.22 1.22 0 1 0-1.707 1.707l11.08 11.08c.075-1.081.132-2.162.171-3.243z"/><path style="fill:var(--color1,#000)" d="M5.943 12.119c.067-.471.117-.944.202-1.411.48-2.647 2.354-4.447 5.033-4.54 3.226-.111 6.461-.117 9.687 0 2.916.105 5.028 2.264 5.119 5.181.097 3.097.097 6.202 0 9.3-.091 2.917-2.202 5.076-5.119 5.181-3.225.116-6.462.119-9.687-.002-2.916-.11-4.933-2.274-5.128-5.195-.017-.253-.071-.503-.108-.755v-7.759zm10.06 11.982c1.476 0 2.954.044 4.428-.01 2.311-.086 3.733-1.465 3.787-3.774.067-2.877.067-5.758 0-8.636-.054-2.309-1.477-3.72-3.787-3.769a208.195 208.195 0 0 0-8.8 0c-2.293.048-3.719 1.431-3.781 3.714a161.406 161.406 0 0 0 0 8.746c.062 2.283 1.488 3.634 3.781 3.719 1.456.054 2.915.01 4.372.01z"/><path fill="#fff" style="fill:var(--color2,#fff)" d="M5.943 12.119c.067-.471.117-.944.202-1.411.48-2.647 2.354-4.447 5.033-4.54 3.226-.111 6.461-.117 9.687 0 2.916.105 5.028 2.264 5.119 5.181.097 3.097.097 6.202 0 9.3-.091 2.917-2.202 5.076-5.119 5.181-3.225.116-6.462.119-9.687-.002-2.916-.11-4.933-2.274-5.128-5.195-.017-.253-.071-.503-.108-.755v-7.759zm10.06 11.982c1.476 0 2.954.044 4.428-.01 2.311-.086 3.733-1.465 3.787-3.774.067-2.877.067-5.758 0-8.636-.054-2.309-1.477-3.72-3.787-3.769a208.195 208.195 0 0 0-8.8 0c-2.293.048-3.719 1.431-3.781 3.714a161.406 161.406 0 0 0 0 8.746c.062 2.283 1.488 3.634 3.781 3.719 1.456.054 2.915.01 4.372.01z"/><path fill="#fff" style="fill:var(--color2,#fff)" d="M16 10.875a5.125 5.125 0 1 0 0 10.25 5.125 5.125 0 0 0 0-10.25zm0 8.486a3.361 3.361 0 1 1 0-6.723 3.361 3.361 0 0 1 0 6.723zM22.644 10.641a1.22 1.22 0 1 1-2.439 0 1.22 1.22 0 0 1 2.439 0z"/></symbol><symbol id="icon-phone" viewBox="0 0 34 32"><path d="M4.902.003a2.115 2.115 0 0 0-1.465.678L.706 3.65c.004-.009-.011-.008-.088.101a.67.67 0 0 0-.095.184C-.589 7.437.157 11.289 1.972 14.953S6.683 22.123 10.007 25s7.075 5.128 10.651 6.244c3.576 1.116 7.044 1.102 9.614-.742a.626.626 0 0 0 .078-.067c.067-.067.07-.075.059-.065l.01-.013 2.718-2.956a2.086 2.086 0 0 0-.141-2.956l-6.448-5.799a2.143 2.143 0 0 0-2.989.138l-2.918 3.173c-2.368-.678-4.393-1.828-6.34-3.579s-3.297-3.637-4.203-5.905L13.015 9.3a2.086 2.086 0 0 0-.14-2.956L6.427.545A2.128 2.128 0 0 0 4.903.006h-.001zm.061 1.301c.2-.009.403.06.569.209l6.448 5.799a.76.76 0 0 1 .053 1.104L8.809 11.92a.652.652 0 0 0-.131.666c.979 2.641 2.557 4.807 4.729 6.761s4.5 3.304 7.251 4.017a.676.676 0 0 0 .659-.192l3.225-3.505a.78.78 0 0 1 1.116-.051l6.449 5.8a.76.76 0 0 1 .052 1.103l-2.696 2.931c-2.109 1.497-5.08 1.581-8.406.542-3.34-1.043-6.966-3.202-10.175-5.98s-6.002-6.169-7.718-9.633C1.465 10.95.849 7.484 1.783 4.429l2.634-2.862a.792.792 0 0 1 .547-.261z"/></symbol><symbol id="study-program" viewBox="0 0 31 32"><path d="m30.151 4.961-.001-.003a.284.284 0 0 0-.06-.09L25.284.062a.237.237 0 0 0-.039-.032l-.001-.001-.009-.005a.274.274 0 0 0-.034-.019l-.002-.001L25.187 0a.28.28 0 0 0-.098-.02l-.005-.001H3.913a.284.284 0 0 0-.284.284v29.311a.25.25 0 0 0 .006.055c.001.008.005.015.007.023l.009.03.013.025.013.023a.33.33 0 0 0 .032.04l.003.003 2.164 2.165a.283.283 0 0 0 .402 0l1.965-1.964 1.963 1.964c.051.052.122.084.201.084s.15-.032.201-.084l1.963-1.963 1.965 1.963a.285.285 0 0 0 .402 0l1.963-1.963 1.963 1.963a.283.283 0 0 0 .402 0l1.965-1.964 1.963 1.964c.051.052.122.084.201.084s.15-.032.201-.084l1.963-1.963 1.965 1.963a.283.283 0 0 0 .402 0l2.165-2.165c.005-.004.007-.009.011-.013.008-.009.017-.019.023-.029.007-.009.011-.02.017-.03l.009-.019c.006-.013.009-.027.012-.04l.005-.013a.256.256 0 0 0 .006-.057V5.069a.314.314 0 0 0-.023-.111l.001.002zM25.367.949l3.835 3.835h-3.835V.949zm4.237 28.507-1.88 1.88-1.965-1.964a.283.283 0 0 0-.402 0l-1.964 1.964-1.963-1.964a.283.283 0 0 0-.402 0l-1.965 1.964-1.963-1.964c-.051-.052-.122-.084-.201-.084s-.15.032-.201.084l-1.963 1.964-1.965-1.964a.283.283 0 0 0-.402 0l-1.963 1.964-1.964-1.964a.287.287 0 0 0-.402 0l-1.965 1.964-1.88-1.88V.547h20.603v4.522c0 .157.127.284.284.284h4.521v24.103z"/><path d="M6.314 3.234h9.303a.284.284 0 1 0 0-.568H6.313a.284.284 0 1 0 0 .568zm0 1.757h14.919a.284.284 0 1 0 0-.568H6.314a.284.284 0 1 0 0 .568zM6.03 6.568v9.199c0 .157.127.284.284.284h21.173a.284.284 0 0 0 .284-.284V6.568a.284.284 0 0 0-.284-.284H6.314a.284.284 0 0 0-.284.284zm6.279.284h14.893v2.445H12.309V6.852zm0 3.013h14.893v2.444H12.309V9.865zm0 3.012h14.893v2.605H12.309v-2.605zM6.598 6.852h5.143v2.445H6.598V6.852zm0 3.013h5.143v2.444H6.598V9.865zm0 3.012h5.143v2.605H6.598v-2.605zm20.889 4.452H6.314a.284.284 0 0 0-.284.284v9.198a.284.284 0 1 0 .568 0v-2.889h5.142v2.889a.284.284 0 1 0 .568 0v-2.889h14.893v2.889a.284.284 0 1 0 .568 0v-9.199a.283.283 0 0 0-.283-.283h-.001zM11.74 23.353H6.599V20.91h5.143v2.443zm0-3.012H6.599v-2.444h5.143v2.444zm15.462 3.012H12.309V20.91h14.893v2.443zm0-3.012H12.309v-2.444h14.893v2.444zM2.281-.021a.284.284 0 0 0-.284.284v29.311a.284.284 0 1 0 .568 0V.263a.284.284 0 0 0-.284-.284H2.28zm-1.562 0H.718a.284.284 0 0 0-.284.284v29.311a.284.284 0 1 0 .568 0V.263a.284.284 0 0 0-.283-.284z"/></symbol><symbol id="mobile-learning" viewBox="0 0 33 32"><path d="M30.175-.128H14.429a1.861 1.861 0 0 0-1.859 1.859V8.25L.872 13.159a.382.382 0 0 0-.051.678l.002.001 1.492.893v9.516A1.722 1.722 0 0 0 .98 25.92v.917c0 .211.17.381.381.381h2.671a.38.38 0 0 0 .381-.381v-.917a1.72 1.72 0 0 0-1.337-1.673v-9.06l1.18.706c-.036.272-.005-.474-.017 4.43 0 1.612 4.129 2.476 8.33 2.525v7.425c0 1.025.832 1.856 1.857 1.856h15.747a1.859 1.859 0 0 0 1.857-1.857c0 .051-.002-1.573 0-28.539a1.87 1.87 0 0 0-1.856-1.859zM3.652 25.918v.537h-1.91v-.537c0-.528.428-.957.953-.957.528 0 .957.43.957.957zm26.523 5.446H14.429c-.378 0-.711-.191-.909-.481a1.081 1.081 0 0 1-.187-.61V27.697h17.934v2.575c0 .596-.497 1.092-1.092 1.092zm1.092-4.429H13.332v-4.086c2.051-.023 8.335-.475 8.335-2.527-.002-3.08.005-4.33-.01-4.436l3.421-2.049a.382.382 0 0 0-.046-.676l-.002-.001-11.698-4.91V5.068h17.935v21.868zm-18.316-9.143c-2.113 0-6.181.273-7.949 1.427.012-3.53-.123-3.3.313-3.6 1.098-.808 4.238-1.373 7.636-1.373 1.483 0 7.954.407 7.954 1.777v3.196c-1.784-1.165-5.832-1.428-7.954-1.428zm.382-16.061A1.096 1.096 0 0 1 14.428.637h15.746c.604 0 1.093.498 1.093 1.095v2.574H13.333V1.732zm-.381 7.184 11.09 4.655-2.748 1.644c-1.461-1.449-6.294-1.729-8.342-1.729-2.051 0-6.883.281-8.342 1.729L1.861 13.57l11.091-4.655zm-7.95 11.406c0-.616 2.73-1.768 7.949-1.768 5.222 0 7.954 1.151 7.954 1.767s-2.732 1.768-7.954 1.768c-5.219 0-7.949-1.151-7.949-1.768z"/><path d="M22.301 28.271a1.261 1.261 0 0 0 0 2.521 1.261 1.261 0 0 0 0-2.52zm0 1.759a.5.5 0 0 1-.001-.996h.001a.498.498 0 0 1 0 .996zm1.454-27.94h-2.907v.761h2.907V2.09z"/></symbol><symbol id="open-book" viewBox="0 0 46 32"><path d="M20.267 4.608H6.627v1.021h13.64V4.608zm0 3.808H8.669v1.021h11.597V8.416zm0 3.808H6.627v1.021h13.64v-1.021zm0 3.808H8.669v1.021h11.597v-1.021zm0 3.808H6.627v1.021h13.64V19.84zm0 3.808H8.669v1.021h11.597v-1.021zM38.99 4.608H25.35v1.021h13.64V4.608zm-2.043 3.808H25.35v1.021h11.597V8.416zm2.043 3.808H25.35v1.021h13.64v-1.021zm-2.043 3.808H25.35v1.021h11.597v-1.021zm2.043 3.808H25.35v1.021h13.64V19.84zm-2.043 3.808H25.35v1.021h11.597v-1.021z"/><path d="M43.915 3.445h-1.872V.633a.511.511 0 0 0-.511-.511H26.25a3.95 3.95 0 0 0-3.431 1.991l-.01.019A3.955 3.955 0 0 0 19.368.121H4.086a.511.511 0 0 0-.511.511v2.812H1.702a.511.511 0 0 0-.511.511v27.411c0 .282.229.511.511.511h42.213a.51.51 0 0 0 .51-.511V3.955a.511.511 0 0 0-.511-.511zM26.267 1.144H41.02v27.349H25.178c-.703 0-1.405.296-1.859.68V4.076a2.932 2.932 0 0 1 2.932-2.932h.015-.001zm-21.672 0h14.774a2.924 2.924 0 0 1 2.922 2.824v.005c.001.022.003.091.007.113v25.087a2.987 2.987 0 0 0-1.852-.678H4.595V1.145zM2.213 4.467h1.362v24.538c0 .282.229.511.511.511h16.36c.779 0 1.531.511 1.772 1.341H2.213V4.468zm41.192 26.389H23.4a1.85 1.85 0 0 1 1.775-1.341H41.532a.511.511 0 0 0 .511-.511V4.466h1.361v26.389z"/></symbol><symbol id="female-student" viewBox="0 0 27 32"><path d="M-.102 31.759h26.785c.132-3.055-.087-8.123-1.965-10.535l-.068-.087-4.103-2.06c.089-.301.133-.576.151-.779a1.43 1.43 0 0 0-.1-.678c-.677-1.62-2.11-2.472-2.898-2.835.24-.484.395-1.003.47-1.534.456-.131.805-.489.921-.942l.002-.009.479-1.947a1.306 1.306 0 0 0-.154-1.007l.003.006a1.316 1.316 0 0 0-.292-.332l-.002-.002c1.351-3.068-.911-5.96-1.035-6.113C15.642.257 12.547.752 12.384.782c-4.467.935-6.19 4.358-5.217 8.372a1.31 1.31 0 0 0-.301 1.21l-.002-.009.481 1.949c.117.468.473.82.916.947a5.01 5.01 0 0 0 1.158 2.567l-.006-.007v1.543c-6.409 3.282-2.348 1.188-7.484 3.787-.01.048-2.41 2.599-2.053 10.158l.022.462zm25.853-.97h-4.408v-1.852l2.915-6.675c1.461 2.425 1.515 7.053 1.493 8.527zm-6.016-12.573c-.17 1.955-1.242 1.364-1.903 2.869-.52-.572-.677-1.258-.537-1.993.253-1.349-.57-1.749-.367-3.166l.031-.032v-.005c.017-.02.18-.213.227-.274 1.745.76 2.584 2.174 2.55 2.6zm-9.356-1.535a4.927 4.927 0 0 0 2.842.894 4.94 4.94 0 0 0 2.75-.831l-.018.011c.112 1.113.547 1.337.393 2.157a3.552 3.552 0 0 0-.054.44v.01l-3.003 3.383-3.837-4.327.927-.483v-1.254zm-1.207-4.142V7.367c.467-.864 1.104-1.491 1.896-1.867 2.12 1.2 4.56 2.99 6.197 4.792-.001 2.294.007 2.3-.009 2.489l-.001.012c-.127 2.084-1.84 3.811-4.037 3.811-2.136 0-3.909-1.677-4.037-3.831a2.716 2.716 0 0 1-.008-.21v-.024.001zm-.598 6.347 4.716 5.317 3.167-3.569c.072.209.173.405.29.596l-3.457 4.322-5.153-6.446.437-.22zm9.657-7.127v-1.498l.36-.413c.02.759.101-.136-.36 1.911zM12.562 1.733c.191.012 2.765-.391 4.799 1.805.08.1 1.736 2.233 1.071 4.567-.227-1.039-.624-2.369-1.251-3.004l-.685.683c.619.627 1.025 2.537 1.18 3.527-2.84-2.972-6.504-4.853-6.554-4.885-.184.114-1.735.409-2.86 2.598l-.054.104v1.608l-.142.001c-.716-3.455.655-6.199 4.497-7.004zM7.963 9.735l.244.987v1.038l-.405-1.64c-.059-.244.121-.337.161-.385zm-.71 9.815 6.037 7.551 4.085-5.109c.444.398.658.454 1.6.939l-.318-1.078c-.08-.273.239-.713.431-.914.434-.238.79-.568 1.051-.966l.007-.011 3.333 1.673-3.101 7.1v2.055H6.201v-2.056l-3.102-7.099 4.153-2.085zm-4.932 2.715 2.916 6.673v1.851H.828c-.023-1.473.032-6.1 1.492-8.525z"/></symbol><symbol id="audio-book" viewBox="0 0 39 32"><path d="M3.047 29.453h12.23a3.743 3.743 0 0 0 3.367 2.115h.801a3.737 3.737 0 0 0 3.356-2.093l.01-.022h12.237a2.288 2.288 0 0 0 2.286-2.286V5.262a2.288 2.288 0 0 0-2.286-2.285h-1.234V1.956A1.525 1.525 0 0 0 32.29.433H5.799a1.524 1.524 0 0 0-1.523 1.523v1.021H3.049A2.289 2.289 0 0 0 .762 5.262v21.905a2.288 2.288 0 0 0 2.287 2.286zm29.24-4.702H19.81V7.046c2.884.377 5.12 2.845 5.12 5.831v.687l-.18-.04a.763.763 0 0 0-.907.575l-.001.005-1.213 5.52a.763.763 0 0 0 .575.906l.005.001 2.621.578a1.946 1.946 0 0 0 2.319-1.492l.701-3.192a1.954 1.954 0 0 0-1.471-2.321l-.013-.003-.912-.201v-1.023c0-3.827-2.917-6.987-6.645-7.371V1.955h12.48l-.001 22.796zm-7.12-9.574 1.871.412a.422.422 0 0 1 .325.508l-.701 3.191a.45.45 0 0 1-.507.331l-1.873-.413.886-4.029zM5.798 1.955h12.487v3.55c-3.731.381-6.651 3.542-6.651 7.372v1.022l-.913.202a1.95 1.95 0 0 0-1.219.846l-.005.008a1.91 1.91 0 0 0-.257 1.482l-.003-.013.701 3.189a1.961 1.961 0 0 0 2.339 1.493l-.013.002 2.61-.577a.764.764 0 0 0 .579-.912l.001.005-1.213-5.519a.76.76 0 0 0-.914-.579l.005-.001-.173.038v-.685c0-2.988 2.24-5.458 5.127-5.832v17.707H5.799V1.956zm7.118 13.222.887 4.029-1.863.411a.431.431 0 0 1-.51-.325l-.001-.003-.702-3.196a.42.42 0 0 1 .056-.321l-.001.002a.427.427 0 0 1 .264-.186l.003-.001 1.867-.412zM2.285 5.262c0-.42.342-.762.762-.762h1.227v20.251a1.526 1.526 0 0 0 1.524 1.524h26.491a1.525 1.525 0 0 0 1.524-1.523V4.5h1.234c.42 0 .762.342.762.762v21.905c0 .42-.341.762-.762.762H22.293a.763.763 0 0 0-.729.539 2.226 2.226 0 0 1-2.126 1.577h-.784a2.23 2.23 0 0 1-2.13-1.571l-.004-.016a.762.762 0 0 0-.725-.529H3.048a.763.763 0 0 1-.763-.762V5.262z"/></symbol><symbol id="group" viewBox="0 0 33 32"><path d="M1.993 12.558v2.831a.5.5 0 0 0 .189.39 11.03 11.03 0 0 0 6.837 2.362c.74 0 1.481-.077 2.207-.224a11.826 11.826 0 0 0 4.872 1.032h.018-.001c1.707 0 3.351-.349 4.891-1.032 3.091.625 6.384-.046 9.042-2.138a.495.495 0 0 0 .189-.39v-2.831c0-.415-.207-.794-.575-1.027l-3.867-2.176c.845-1.073 1.476-2.602 1.585-3.913.321-2.256-1.518-4.646-4.165-4.646a4.212 4.212 0 0 0-2.948 1.227c-.027.027-.057.049-.083.077-.024.025-.043.054-.067.08-.016.017-.029.035-.045.053C19.316.852 17.862 0 16.149 0c-.167 0-.33.011-.492.028-.01-.001-.018-.006-.028-.006-.092 0-.287.025-.391.055-.015.004-.027.015-.041.021a4.498 4.498 0 0 0-3.002 2.135l-.011.021A4.17 4.17 0 0 0 9.015.797h-.01.001c-3.908 0-5.641 4.612-2.557 8.581l-3.903 2.167a1.19 1.19 0 0 0-.553 1.014zm19.004 4.27c-.084.041-.167.085-.251.123l-.002.001a10.84 10.84 0 0 1-4.596 1.006h-.032.002-.025c-2.509 0-4.823-.837-6.677-2.248l.027.02v-2.87c0-.097.048-.184.103-.221l4.542-2.525c.565.48 1.287.832 2.035.832.721 0 1.499-.357 2.053-.843l4.487 2.52a.277.277 0 0 1 .131.237v2.87c-.52.395-1.108.76-1.729 1.069l-.064.029zm8.158-4.447a.202.202 0 0 1 .092.169v2.595a9.988 9.988 0 0 1-6.737 1.98c.419-.265.772-.515 1.112-.782l-.028.022a.495.495 0 0 0 .189-.39V12.86c0-.435-.218-.835-.61-1.087l-2.383-1.339.58-.321c.703.573 1.307.744 1.848.744.663 0 1.36-.325 1.878-.759l4.06 2.284zM23.217 1.788c1.38 0 2.593.902 3.021 2.142a3.698 3.698 0 0 1-2.235-1.14l-.002-.002a.497.497 0 0 0-.788.082l-.001.002a3.693 3.693 0 0 1-2.525 1.757l-.022.003v-.003l.001-.079c0-.202-.012-.402-.036-.598l.002.023-.007-.066a5.31 5.31 0 0 0-.131-.647l.009.038c.563-.902 1.609-1.513 2.713-1.513zm-2.66 3.855a4.648 4.648 0 0 0 3.156-1.751l.008-.01a4.684 4.684 0 0 0 2.702 1.056c-.007 1.792-1.471 4.927-3.207 4.927-1.337 0-2.478-1.912-2.905-3.238a8.15 8.15 0 0 0 .245-.983zm.1 3.73-.885.491-.895-.503c.331-.413.636-.893.896-1.413.251.527.551 1.01.885 1.425zM19.32 6.465c-.478 1.427-1.705 3.49-3.199 3.49-1.742 0-3.225-2.864-3.508-4.696.075-.019 2.429.127 4.049-2.001.822.688 1.931 1.143 3.011 1.188.013.647-.144 1.407-.353 2.019zM16.15.991c2.78 0 3.309 2.393 3.352 2.443a4.131 4.131 0 0 1-2.561-1.274l-.002-.002a.494.494 0 0 0-.788.085l-.001.002a4.095 4.095 0 0 1-2.385 1.86l-.029.007a4.23 4.23 0 0 1-1.14.153h-.028.001C12.705 2.444 14.166.992 16.15.992zm-3.689 6.947c.257.515.563 1.007.913 1.439l-.876.487-.907-.51c.344-.439.636-.929.869-1.415zm-3.454-6.15c1.125 0 2.155.571 2.729 1.514-.029.1-.107.498-.117.548a3.682 3.682 0 0 1-1.818-1.061l-.002-.002a.494.494 0 0 0-.787.085l-.001.002a3.717 3.717 0 0 1-3.177 1.815h-.001c.158-1.627 1.518-2.9 3.173-2.9zM5.876 5.677a4.699 4.699 0 0 0 3.635-1.786l.007-.01c.57.468 1.264.806 2.026.956l.029.005c.029.575.179 1.273.351 1.789-.274.84-.799 1.84-1.451 2.505-.005.004-.01.006-.013.01-.409.43-.989.719-1.445.719-1.593 0-2.841-2.508-3.14-4.188zm-2.891 6.881c0-.075.033-.139.067-.162l4.117-2.284c.247.206.303.229.353.265.484.323.928.483 1.533.483.645 0 1.233-.273 1.749-.694.029-.023.061-.045.089-.068l.587.33-2.446 1.361a1.271 1.271 0 0 0-.584 1.069V15.976c0 .152.07.295.19.389.317.249.727.539 1.083.761a10.017 10.017 0 0 1-6.737-1.98v-2.587z"/><path d="M31.259 20.781a2.042 2.042 0 0 0-1.102-.319c-.329 0-.641.077-.917.215l.012-.005-6.12 2.957a2.11 2.11 0 0 0-2.106-2.072l-3.51.001c-1.73-1.504-3.941-2.425-5.952-2.473-1.983-.047-3.762-.06-4.592-.064v-1.002H0v11.516h6.972v-1.379c1.911 1.098 6.939 3.846 9.325 3.846.053 0 .107-.001.157-.005 4.196-.235 14.091-7.198 14.743-7.66a2.083 2.083 0 0 0 1.034-1.796v-.006a2.06 2.06 0 0 0-.965-1.747l-.009-.005zM5.98 28.542H.992v-9.533H5.98v9.533zm24.707-5.057a.385.385 0 0 0-.045.028l.001-.001c-.103.073-10.281 7.271-14.245 7.493a2.179 2.179 0 0 1-.12.003c-2.093 0-7.195-2.753-9.307-4.001V20.01c.827.003 2.596.017 4.569.063 1.837.044 3.876.921 5.455 2.346l.141.127h3.888a1.119 1.119 0 0 1 0 2.237h-7.142v.991h7.142a2.1 2.1 0 0 0 1.673-.839l6.984-3.373a1.052 1.052 0 0 1 1.053.06l-.004-.003c.323.202.508.537.508.918a1.087 1.087 0 0 1-.548.943l-.005.003zM16.611 12.159h-.991v.92h.991v-.92zm0 1.833h-.991v.92h.991v-.92zm0 1.835h-.991v.919h.991v-.92z"/></symbol><symbol id="author" viewBox="0 0 27 32"><path d="M-.102 31.84h26.785c.133-3.061-.086-8.139-1.964-10.556l-.068-.087-4.104-2.065c.089-.301.133-.577.151-.78a1.433 1.433 0 0 0-.1-.679c-.677-1.623-2.11-2.477-2.898-2.842.24-.485.395-1.005.47-1.537.446-.126.805-.48.922-.953l.479-1.95a1.318 1.318 0 0 0-.151-1.004 1.296 1.296 0 0 0-.294-.335c1.351-3.074-.911-5.972-1.035-6.125C15.641.273 12.546.769 12.383.799c-4.466.937-6.19 4.367-5.217 8.389-.288.32-.409.766-.302 1.203l.481 1.952c.117.469.473.822.916.95a5.033 5.033 0 0 0 1.152 2.565v1.546c-6.409 3.289-2.348 1.191-7.484 3.794-.01.049-2.41 2.604-2.053 10.179l.022.463zm25.854-.972h-4.408v-1.856l2.916-6.688c1.461 2.429 1.515 7.067 1.493 8.544zM19.735 18.27c-.17 1.958-1.242 1.366-1.903 2.875-.52-.573-.677-1.261-.537-1.997.253-1.351-.57-1.753-.367-3.172l.031-.033v-.004c.017-.02.18-.213.227-.274 1.744.762 2.584 2.179 2.55 2.606zm-9.356-1.539a4.957 4.957 0 0 0 5.574.075c.112 1.116.547 1.34.393 2.161a3.558 3.558 0 0 0-.054.45l-3.002 3.39-3.838-4.335.926-.485V16.73zm-1.207-4.15V7.398c.467-.866 1.104-1.494 1.896-1.87 2.12 1.202 4.56 2.996 6.197 4.801-.002 2.299.006 2.305-.009 2.494l-.001.012c-.128 2.088-1.841 3.818-4.038 3.818-2.136 0-3.909-1.68-4.037-3.839a2.588 2.588 0 0 1-.008-.234zm-.598 6.36 4.716 5.327 3.166-3.576c.072.209.174.406.29.597L13.29 25.62l-5.154-6.459.438-.22zM18.23 11.8v-1.501l.36-.414c.02.76.102-.137-.36 1.914zM12.562 1.754c.192.012 2.765-.392 4.799 1.808.08.101 1.736 2.238 1.071 4.577-.228-1.041-.624-2.374-1.252-3.01l-.686.684c.619.628 1.026 2.542 1.181 3.534-2.84-2.978-6.504-4.863-6.555-4.895-.184.115-1.734.41-2.86 2.603l-.054.105v1.611l-.142.002c-.716-3.461.655-6.211 4.497-7.018zM7.963 9.772l.244.989v1.04l-.405-1.643c-.059-.245.122-.338.161-.386zm-.71 9.834 6.037 7.566 4.085-5.119c.444.398.658.455 1.6.94l-.318-1.08c-.081-.274.239-.714.431-.916a2.94 2.94 0 0 0 1.058-.979l3.333 1.677-3.101 7.115v2.059H6.202V28.81l-3.103-7.114 4.153-2.089zm-4.932 2.721 2.916 6.686v1.855H.829c-.022-1.476.033-6.112 1.492-8.542z"/></symbol><symbol id="guarantee" viewBox="0 0 27 32"><path d="M.529 13.737c0 .349-.529.349-.529 0C0 6.319 6.004.303 13.407.303c7.406 0 13.407 6.016 13.407 13.434 0 .349-.525.349-.525 0 0-5.014-8.223-5.017-8.223 0 0 .349-.541.349-.541 0 0-5.001-8.235-5.001-8.235 0 0 .349-.541.349-.541 0 0-4.992-8.219-5.027-8.219 0zm8.267-1.947c.142-2.886.595-5.474 1.253-7.45.525-1.57 1.19-2.762 1.943-3.432C6.339 1.526 1.763 5.821.74 11.39c1.946-2.813 6.441-2.588 8.055.4zm8.687-.13c-.146-2.775-.586-5.258-1.218-7.152-1.633-4.9-4.083-4.9-5.716 0-.633 1.893-1.07 4.377-1.219 7.152 1.757-2.991 6.396-2.991 8.153 0zm8.59-.27C25.054 5.821 20.477 1.527 14.821.908c.756.669 1.418 1.862 1.943 3.432.658 1.976 1.111 4.564 1.253 7.45 1.624-3.003 6.131-3.181 8.055-.4zM11.648 19.884v-2.728c-.491.327-.877.831-.877 1.446 0 .599.392.996.877 1.282zm.528.847c-.94-.431-1.931-.936-1.931-2.128 0-1.231.934-1.846 1.931-2.306v4.435zM15.166 24v2.759c.497-.33.886-.837.886-1.453 0-.606-.399-1.015-.886-1.307zm-.525-.85c.943.438 1.94.958 1.94 2.157 0 1.234-.94 1.849-1.94 2.306v-4.462z"/><path d="M15.166 14.051c2.165.501 4.39 2.125 4.39 4.551 0 2.077-3.504 2.001-3.504 0 0-.618-.389-1.126-.886-1.453v3.882c2.003.656 4.396 1.833 4.396 4.275 0 2.429-2.225 4.05-4.396 4.548-.009 2.312-3.513 2.309-3.519-.003-1.234-.285-2.307-.863-3.083-1.627-.813-.806-1.295-1.817-1.295-2.918 0-2.046 3.5-2.046 3.5 0 0 .612.386 1.116.877 1.443V22.87c-1.988-.644-4.393-1.855-4.393-4.275 0-2.429 2.225-4.05 4.393-4.548.01-2.312 3.513-2.309 3.519.003zm-2.991.006v.422c-2.06.409-4.396 1.732-4.396 4.117 0 2.293 2.564 3.321 4.396 3.888v5.125c-.991-.454-1.931-1.066-1.931-2.303 0-1.351-2.45-1.351-2.45 0 0 .955.424 1.836 1.139 2.54.908.901 2.01 1.329 3.241 1.573v.425c0 1.627 2.466 1.627 2.466 0v-.422c2.067-.412 4.393-1.735 4.393-4.117 0-2.315-2.557-3.311-4.393-3.891v-5.122c.994.454 1.94 1.066 1.94 2.309 0 1.316 2.447 1.37 2.447 0 0-2.382-2.323-3.707-4.387-4.12v-.425c0-1.627-2.466-1.627-2.466 0z"/></symbol><symbol id="teaching" viewBox="0 0 32 32"><path d="M29.566.029H14.149c-1.004 0-1.82.816-1.82 1.818v6.376L.875 13.026a.372.372 0 0 0-.048.663l1.461.873v9.307a1.681 1.681 0 0 0-1.307 1.637v.897c0 .206.167.373.373.373H3.97a.373.373 0 0 0 .373-.373v-.897c0-.798-.561-1.465-1.308-1.636v-8.862l1.155.691c-.035.266-.005-.464-.017 4.333 0 1.577 4.043 2.422 8.156 2.47v7.263a1.82 1.82 0 0 0 1.82 1.816h15.417a1.82 1.82 0 0 0 1.818-1.817c0 .05-.002-1.539 0-27.917 0-.989-.819-1.819-1.817-1.819zM3.597 25.507v.524h-1.87v-.524a.935.935 0 1 1 1.87 0zm25.969 5.327H14.149c-.37 0-.697-.187-.89-.471a1.062 1.062 0 0 1-.183-.598v-2.518h17.56v2.519c0 .584-.487 1.068-1.07 1.068zm1.07-4.333H13.075v-3.997c2.008-.023 8.161-.465 8.161-2.472-.002-3.013.005-4.235-.009-4.339l3.349-2.004a.371.371 0 0 0-.048-.663L13.075 8.223V5.111h17.561v21.391zm-17.934-8.943c-2.069 0-6.053.267-7.783 1.396.011-3.453-.12-3.228.306-3.521 1.075-.791 4.15-1.343 7.477-1.343 1.451 0 7.788.399 7.788 1.739v3.126c-1.747-1.14-5.71-1.396-7.788-1.396zm.374-15.711c0-.591.481-1.071 1.072-1.071h15.417c.592 0 1.07.487 1.07 1.071v2.518h-17.56V1.847zm-.374 7.028 10.858 4.553-2.691 1.609c-1.43-1.417-6.162-1.692-8.168-1.692-2.008 0-6.74.276-8.168 1.692l-2.691-1.609 10.859-4.553zM4.919 20.032c0-.603 2.673-1.729 7.783-1.729 5.113 0 7.788 1.126 7.788 1.729s-2.675 1.729-7.788 1.729c-5.11 0-7.783-1.126-7.783-1.729z"/><path d="M21.856 27.809c-.68 0-1.234.553-1.234 1.232a1.235 1.235 0 0 0 2.468 0c0-.68-.553-1.232-1.234-1.232zm0 1.72a.489.489 0 1 1 .001-.977.489.489 0 0 1-.001.977zM23.279 2.198h-2.846v.745h2.846v-.745z"/></symbol><symbol id="icon-facebook" viewBox="0 0 32 32"><path d="M29 0H3C1.35 0 0 1.35 0 3v26c0 1.65 1.35 3 3 3h13V18h-4v-4h4v-2c0-3.306 2.694-6 6-6h4v4h-4c-1.1 0-2 .9-2 2v2h6l-1 4h-5v14h9c1.65 0 3-1.35 3-3V3c0-1.65-1.35-3-3-3z"/></symbol><symbol id="icon-arrow-back" viewBox="0 0 54 32"><path fill="#ff6b09" style="fill:var(--color1,#ff6b09)" d="M52 14a2 2 0 1 1 0 4v-4zM.586 17.414a2 2 0 0 1 0-2.828L13.314 1.858a2 2 0 1 1 2.828 2.828L4.828 16l11.314 11.314a2 2 0 1 1-2.828 2.828L.586 17.414zM52 18H2v-4h50v4z"/></symbol><symbol id="icon-arrow-next" viewBox="0 0 54 32"><path fill="#ff6b09" style="fill:var(--color1,#ff6b09)" d="M2 14a2 2 0 1 0 0 4v-4zm51.414 3.414a2 2 0 0 0 0-2.828L40.686 1.858a2 2 0 1 0-2.828 2.828L49.172 16 37.858 27.314a2 2 0 1 0 2.828 2.828l12.728-12.728zM2 18h50v-4H2v4z"/></symbol><symbol id="arrow-up" viewBox="0 0 18 19"><path fill="#ff6b09" d="m2 10 7-6 7 6v2L9 6l-7 6Z"/></symbol></defs></svg>