<svg width="458" height="629" fill="none" xmlns="http://www.w3.org/2000/svg"><g filter="url('#filter0_d_1_3448')" fill="#3D3D3D"><path d="M427.586 321.94c-5.498-12.326-13.082-24.464-24.172-38.484-27.964-35.19-36.495-113.661-36.59-114.414-.379-3.764-3.033-6.869-6.541-7.998a9.606 9.606 0 0 0-10.047 2.729c-33.367 37.354-19.338 95.032-11.755 118.084 2.086 6.304 4.361 13.737 5.971 21.264 12.323 60.877-11.47 88.446-17.062 93.997-5.403 1.506-9.1.753-12.513-2.917-11.754-12.89-15.64-55.137-10.142-110.18 1.138-11.197.853-21.265-.759-30.674-11.595-67.654-54.109-111.05-64.932-126.27-29.765-44.034-32.798-117.331-32.893-117.99-.095-3.481-2.085-6.586-5.213-8.091-3.034-1.506-6.73-1.318-9.574.658-49.671 33.779-45.405 115.167-38.486 160.613 1.612 10.539 4.74 21.265 10.143 34.814 19.243 48.457-3.792 111.027-3.981 111.592-.19.564-.379 1.035-.474 1.599-2.939 15.431-7.868 24.652-13.366 24.652-.569 0-1.137-.094-1.801-.282-6.73-1.411-10.237-8.562-10.332-14.772-.379-80.26-80.857-107.264-81.71-107.546-3.603-1.129-7.584-.094-10.048 2.822-2.56 2.917-3.034 6.963-1.328 10.35.948 1.976 3.982 10.633 1.896 41.212-1.8 27.475-6.825 54.667-14.882 80.73C7.847 409.915 10.88 469.098 11.07 471.921c14.724 160.243 244.979 188.322 381.631 98.042 14.977-9.879 27.205-21.17 36.211-33.59 50.43-69.627 20.76-164.189-1.326-214.433ZM77.33 475.026c.285 5.175-3.697 9.597-8.91 9.879h-.569c-5.024 0-9.195-3.858-9.479-8.844-.853-13.738-.663-28.134.38-43.753.378-5.175 4.928-9.032 10.142-8.751 5.213.376 9.195 4.893 8.816 10.068-1.044 14.867-1.233 28.416-.38 41.401Zm4.644-83.365c-.569 4.799-4.645 8.28-9.384 8.28-.38 0-.758 0-1.233-.094-5.118-.659-8.815-5.269-8.246-10.444l4.55-36.319c.663-5.081 5.308-8.751 10.616-8.186 5.214.658 8.91 5.363 8.247 10.538l-4.55 36.225ZM363.454 128.66c-5.17-.795-8.715-5.591-7.918-10.723.592-3.823 4.017-23.393 13.311-33.234 3.577-3.795 9.567-3.993 13.4-.428a9.361 9.361 0 0 1 .43 13.301c-3.934 4.167-7.286 16.093-8.405 23.229-.8 5.077-5.571 8.641-10.818 7.855ZM17.882 175.528c-1.815-6.997-6.323-18.537-10.65-22.305a9.357 9.357 0 0 1-.88-13.277c3.444-3.914 9.428-4.314 13.376-.873 10.215 8.89 15.552 28.034 16.52 31.778 1.296 5.031-1.759 10.149-6.822 11.444-5.176 1.292-10.254-1.819-11.544-6.767Z"/></g><defs><filter id="filter0_d_1_3448" x="0" y="0" width="460.594" height="628.868" filterUnits="userSpaceOnUse" color-interpolation-filters="sRGB"><feFlood flood-opacity="0" result="BackgroundImageFix"/><feColorMatrix in="SourceAlpha" values="0 0 0 0 0 0 0 0 0 0 0 0 0 0 0 0 0 0 127 0" result="hardAlpha"/><feOffset dy="4"/><feGaussianBlur stdDeviation="2"/><feComposite in2="hardAlpha" operator="out"/><feColorMatrix values="0 0 0 0 0 0 0 0 0 0 0 0 0 0 0 0 0 0 0.25 0"/><feBlend in2="BackgroundImageFix" result="effect1_dropShadow_1_3448"/><feBlend in="SourceGraphic" in2="effect1_dropShadow_1_3448" result="shape"/></filter></defs></svg>