<svg aria-hidden="true" style="width:0;height:0;position:absolute;overflow:hidden" xmlns="http://www.w3.org/2000/svg"><defs><symbol id="icon-facebook" viewBox="0 0 32 32"><path d="M29 0H3C1.35 0 0 1.35 0 3v26c0 1.65 1.35 3 3 3h13V18h-4v-4h4v-2c0-3.306 2.694-6 6-6h4v4h-4c-1.1 0-2 .9-2 2v2h6l-1 4h-5v14h9c1.65 0 3-1.35 3-3V3c0-1.65-1.35-3-3-3z"/></symbol><symbol id="icon-arrow-back" viewBox="0 0 54 32"><path fill="#ff6b09" style="fill:var(--color1,#ff6b09)" d="M52 14a2 2 0 1 1 0 4v-4zM.586 17.414a2 2 0 0 1 0-2.828L13.314 1.858a2 2 0 1 1 2.828 2.828L4.828 16l11.314 11.314a2 2 0 1 1-2.828 2.828L.586 17.414zM52 18H2v-4h50v4z"/></symbol><symbol id="icon-arrow-next" viewBox="0 0 54 32"><path fill="#ff6b09" style="fill:var(--color1,#ff6b09)" d="M2 14a2 2 0 1 0 0 4v-4zm51.414 3.414a2 2 0 0 0 0-2.828L40.686 1.858a2 2 0 1 0-2.828 2.828L49.172 16 37.858 27.314a2 2 0 1 0 2.828 2.828l12.728-12.728zM2 18h50v-4H2v4z"/></symbol></defs></svg>