<svg aria-hidden="true" style="position: absolute; width: 0; height: 0; overflow: hidden;" version="1.1" xmlns="http://www.w3.org/2000/svg" xmlns:xlink="http://www.w3.org/1999/xlink">
<defs>
<symbol id="author" viewBox="0 0 27 32">
<path d="M-0.102 31.84c3.441 0 23.348 0 26.785 0 0.133-3.061-0.086-8.139-1.964-10.556l-0.068-0.087-4.104-2.065c0.089-0.301 0.133-0.577 0.151-0.78 0.020-0.243-0.013-0.472-0.1-0.679-0.677-1.623-2.11-2.477-2.898-2.842 0.24-0.485 0.395-1.005 0.47-1.537 0.446-0.126 0.805-0.48 0.922-0.953l0.479-1.95c0.085-0.344 0.032-0.701-0.151-1.004-0.078-0.131-0.18-0.241-0.294-0.335 1.351-3.074-0.911-5.972-1.035-6.125-2.45-2.654-5.545-2.158-5.708-2.128-4.466 0.937-6.19 4.367-5.217 8.389-0.288 0.32-0.409 0.766-0.302 1.203l0.481 1.952c0.117 0.469 0.473 0.822 0.916 0.95 0.137 0.974 0.548 1.855 1.152 2.565v1.546c-6.409 3.289-2.348 1.191-7.484 3.794-0.010 0.049-2.41 2.604-2.053 10.179l0.022 0.463zM25.752 30.868h-4.408v-1.856l2.916-6.688c1.461 2.429 1.515 7.067 1.493 8.544zM19.735 18.27c-0.17 1.958-1.242 1.366-1.903 2.875-0.52-0.573-0.677-1.261-0.537-1.997 0.253-1.351-0.57-1.753-0.367-3.172l0.031-0.033v-0.004c0.017-0.020 0.18-0.213 0.227-0.274 1.744 0.762 2.584 2.179 2.55 2.606zM10.379 16.731c0.81 0.563 1.787 0.895 2.838 0.895 0.99 0 1.93-0.289 2.736-0.82 0.112 1.116 0.547 1.34 0.393 2.161-0.029 0.152-0.045 0.303-0.054 0.45l-3.002 3.39-3.838-4.335 0.926-0.485v-1.257zM9.172 12.581v-1.88c0-0.692 0-3.438 0-3.303 0.467-0.866 1.104-1.494 1.896-1.87 2.12 1.202 4.56 2.996 6.197 4.801-0.002 2.299 0.006 2.305-0.009 2.494l-0.001 0.012c-0.128 2.088-1.841 3.818-4.038 3.818-2.136 0-3.909-1.68-4.037-3.839-0.007-0.077-0.008-0.155-0.008-0.234zM8.574 18.941l4.716 5.327 3.166-3.576c0.072 0.209 0.174 0.406 0.29 0.597l-3.456 4.331-5.154-6.459 0.438-0.22zM18.23 11.8v-1.501c0.042-0.049 0.402-0.462 0.36-0.414 0.020 0.76 0.102-0.137-0.36 1.914zM12.562 1.754c0.192 0.012 2.765-0.392 4.799 1.808 0.080 0.101 1.736 2.238 1.071 4.577-0.228-1.041-0.624-2.374-1.252-3.010l-0.686 0.684c0.619 0.628 1.026 2.542 1.181 3.534-2.84-2.978-6.504-4.863-6.555-4.895-0.184 0.115-1.734 0.41-2.86 2.603l-0.054 0.105v1.611c-0.048 0-0.19 0.002-0.142 0.002-0.716-3.461 0.655-6.211 4.497-7.018zM7.963 9.772l0.244 0.989v1.040l-0.405-1.643c-0.059-0.245 0.122-0.338 0.161-0.386zM7.253 19.606l6.037 7.566 4.085-5.119c0.444 0.398 0.658 0.455 1.6 0.94l-0.318-1.080c-0.081-0.274 0.239-0.714 0.431-0.916 0.43-0.234 0.789-0.568 1.058-0.979l3.333 1.677-3.101 7.115v2.059h-14.176v-2.059l-3.103-7.114 4.153-2.089zM2.321 22.327l2.916 6.686v1.855h-4.408c-0.022-1.476 0.033-6.112 1.492-8.542z"></path>
</symbol>
<symbol id="guarantee" viewBox="0 0 27 32">
<path d="M0.529 13.737c0 0.349-0.529 0.349-0.529 0 0-7.418 6.004-13.434 13.407-13.434 7.406 0 13.407 6.016 13.407 13.434 0 0.349-0.525 0.349-0.525 0 0-5.014-8.223-5.017-8.223 0 0 0.349-0.541 0.349-0.541 0 0-5.001-8.235-5.001-8.235 0 0 0.349-0.541 0.349-0.541 0 0-4.992-8.219-5.027-8.219 0zM8.796 11.79c0.142-2.886 0.595-5.474 1.253-7.45 0.525-1.57 1.19-2.762 1.943-3.432-5.653 0.618-10.229 4.913-11.252 10.482 1.946-2.813 6.441-2.588 8.055 0.4zM17.483 11.66c-0.146-2.775-0.586-5.258-1.218-7.152-1.633-4.9-4.083-4.9-5.716 0-0.633 1.893-1.070 4.377-1.219 7.152 1.757-2.991 6.396-2.991 8.153 0zM26.073 11.39c-1.019-5.569-5.596-9.863-11.252-10.482 0.756 0.669 1.418 1.862 1.943 3.432 0.658 1.976 1.111 4.564 1.253 7.45 1.624-3.003 6.131-3.181 8.055-0.4z"></path>
<path d="M11.648 19.884v-2.728c-0.491 0.327-0.877 0.831-0.877 1.446 0 0.599 0.392 0.996 0.877 1.282zM12.176 20.731c-0.94-0.431-1.931-0.936-1.931-2.128 0-1.231 0.934-1.846 1.931-2.306v4.435z"></path>
<path d="M15.166 24v2.759c0.497-0.33 0.886-0.837 0.886-1.453 0-0.606-0.399-1.015-0.886-1.307zM14.641 23.15c0.943 0.438 1.94 0.958 1.94 2.157 0 1.234-0.94 1.849-1.94 2.306v-4.462z"></path>
<path d="M15.166 14.051c2.165 0.501 4.39 2.125 4.39 4.551 0 2.077-3.504 2.001-3.504 0 0-0.618-0.389-1.126-0.886-1.453v3.882c2.003 0.656 4.396 1.833 4.396 4.275 0 2.429-2.225 4.050-4.396 4.548-0.009 2.312-3.513 2.309-3.519-0.003-1.234-0.285-2.307-0.863-3.083-1.627-0.813-0.806-1.295-1.817-1.295-2.918 0-2.046 3.5-2.046 3.5 0 0 0.612 0.386 1.116 0.877 1.443v-3.879c-1.988-0.644-4.393-1.855-4.393-4.275 0-2.429 2.225-4.050 4.393-4.548 0.010-2.312 3.513-2.309 3.519 0.003zM12.175 14.057v0.422c-2.060 0.409-4.396 1.732-4.396 4.117 0 2.293 2.564 3.321 4.396 3.888v5.125c-0.991-0.454-1.931-1.066-1.931-2.303 0-1.351-2.45-1.351-2.45 0 0 0.955 0.424 1.836 1.139 2.54 0.908 0.901 2.010 1.329 3.241 1.573v0.425c0 1.627 2.466 1.627 2.466 0v-0.422c2.067-0.412 4.393-1.735 4.393-4.117 0-2.315-2.557-3.311-4.393-3.891v-5.122c0.994 0.454 1.94 1.066 1.94 2.309 0 1.316 2.447 1.37 2.447 0 0-2.382-2.323-3.707-4.387-4.12v-0.425c0-1.627-2.466-1.627-2.466 0z"></path>
</symbol>
<symbol id="teaching" viewBox="0 0 32 32">
<path d="M29.566 0.029h-15.417c-1.004 0-1.82 0.816-1.82 1.818v6.376l-11.454 4.803c-0.13 0.054-0.218 0.177-0.228 0.317s0.059 0.274 0.18 0.346l1.461 0.873v9.307c-0.747 0.17-1.307 0.838-1.307 1.637v0.897c0 0.206 0.167 0.373 0.373 0.373h2.616c0.206 0 0.373-0.167 0.373-0.373v-0.897c0-0.798-0.561-1.465-1.308-1.636v-8.862l1.155 0.691c-0.035 0.266-0.005-0.464-0.017 4.333 0 1.577 4.043 2.422 8.156 2.47v7.263c0 0.375 0.115 0.724 0.312 1.014 0.327 0.483 0.881 0.802 1.508 0.802h15.417c1.003 0 1.818-0.815 1.818-1.817-0 0.050-0.002-1.539 0-27.917 0-0.989-0.819-1.819-1.817-1.819zM3.597 25.507v0.524h-1.87v-0.524c0-0.516 0.418-0.936 0.933-0.936 0.517 0 0.937 0.42 0.937 0.936zM29.566 30.834h-15.417c-0.37 0-0.697-0.187-0.89-0.471-0.116-0.171-0.183-0.377-0.183-0.598v-2.518h17.56v2.519c0 0.584-0.487 1.068-1.070 1.068zM30.636 26.501h-17.561v-3.997c2.008-0.023 8.161-0.465 8.161-2.472-0.002-3.013 0.005-4.235-0.009-4.339l3.349-2.004c0.121-0.072 0.19-0.206 0.18-0.346s-0.098-0.262-0.228-0.317l-11.453-4.803v-3.112h17.561v21.391zM12.702 17.558c-2.069 0-6.053 0.267-7.783 1.396 0.011-3.453-0.12-3.228 0.306-3.521 1.075-0.791 4.15-1.343 7.477-1.343 1.451 0 7.788 0.399 7.788 1.739v3.126c-1.747-1.14-5.71-1.396-7.788-1.396zM13.076 1.847c0-0.591 0.481-1.071 1.072-1.071h15.417c0.592 0 1.070 0.487 1.070 1.071v2.518h-17.56v-2.518zM12.702 8.875l10.858 4.553-2.691 1.609c-1.43-1.417-6.162-1.692-8.168-1.692-2.008 0-6.74 0.276-8.168 1.692l-2.691-1.609 10.859-4.553zM4.919 20.032c0-0.603 2.673-1.729 7.783-1.729 5.113 0 7.788 1.126 7.788 1.729s-2.675 1.729-7.788 1.729c-5.11 0-7.783-1.126-7.783-1.729z"></path>
<path d="M21.856 27.809c-0.68 0-1.234 0.553-1.234 1.232s0.553 1.233 1.234 1.233c0.68 0 1.234-0.553 1.234-1.233s-0.553-1.232-1.234-1.232zM21.856 29.529c-0.269 0-0.488-0.219-0.488-0.488s0.219-0.487 0.488-0.487c0.269 0 0.488 0.218 0.488 0.487s-0.219 0.488-0.488 0.488z"></path>
<path d="M23.279 2.198h-2.846v0.745h2.846v-0.745z"></path>
</symbol>
</defs>
</svg>
