<svg aria-hidden="true" style="position: absolute; width: 0; height: 0; overflow: hidden;" version="1.1" xmlns="http://www.w3.org/id2000/svg" xmlns:xlink="http://www.w3.org/1999/xlink">
<defs>
<symbol id="check-fire" viewBox="0 0 26 32">
<path d="M22.642 16.003c-0.275-0.613-0.654-1.216-1.208-1.912-1.398-1.749-1.824-5.649-1.829-5.686-0.019-0.187-0.152-0.341-0.327-0.397-0.18-0.056-0.374-0.005-0.502 0.136-1.668 1.856-0.967 4.723-0.588 5.869 0.104 0.313 0.218 0.683 0.298 1.057 0.616 3.025-0.573 4.396-0.853 4.672-0.27 0.075-0.455 0.037-0.625-0.145-0.588-0.641-0.782-2.74-0.507-5.476 0.057-0.556 0.043-1.057-0.038-1.524-0.58-3.362-2.704-5.519-3.245-6.275-1.488-2.188-1.639-5.831-1.644-5.864-0.005-0.173-0.104-0.327-0.261-0.402-0.152-0.075-0.336-0.065-0.479 0.033-2.483 1.679-2.269 5.724-1.924 7.982 0.081 0.524 0.237 1.057 0.507 1.73 0.962 2.408-0.19 5.518-0.199 5.546s-0.019 0.051-0.024 0.079c-0.147 0.767-0.393 1.225-0.668 1.225-0.028 0-0.057-0.005-0.090-0.014-0.336-0.070-0.512-0.426-0.516-0.734-0.019-3.989-4.041-5.331-4.084-5.345-0.18-0.056-0.379-0.005-0.502 0.14-0.128 0.145-0.152 0.346-0.066 0.514 0.047 0.098 0.199 0.528 0.095 2.048-0.090 1.365-0.341 2.717-0.744 4.012-0.957 3.105-0.805 6.046-0.796 6.187 0.736 7.964 12.245 9.359 19.075 4.873 0.748-0.491 1.36-1.052 1.81-1.669 2.521-3.46 1.038-8.16-0.066-10.657zM5.135 23.611c0.014 0.257-0.185 0.477-0.445 0.491h-0.028c-0.251 0-0.46-0.192-0.474-0.44-0.043-0.683-0.033-1.398 0.019-2.174 0.019-0.257 0.246-0.449 0.507-0.435 0.261 0.019 0.46 0.243 0.441 0.5-0.052 0.739-0.062 1.412-0.019 2.058zM5.368 19.468c-0.028 0.238-0.232 0.412-0.469 0.412-0.019 0-0.038 0-0.062-0.005-0.256-0.033-0.441-0.262-0.412-0.519l0.227-1.805c0.033-0.252 0.265-0.435 0.531-0.407 0.261 0.033 0.445 0.267 0.412 0.524l-0.227 1.8z"></path>
<path d="M19.437 6.397c-0.258-0.040-0.436-0.278-0.396-0.533 0.030-0.19 0.201-1.163 0.665-1.652 0.179-0.189 0.478-0.198 0.67-0.021s0.2 0.472 0.021 0.661c-0.197 0.207-0.364 0.8-0.42 1.154-0.040 0.252-0.279 0.429-0.541 0.39z"></path>
<path d="M2.164 8.727c-0.091-0.348-0.316-0.921-0.532-1.109-0.197-0.17-0.217-0.466-0.044-0.66s0.471-0.214 0.669-0.043c0.511 0.442 0.777 1.393 0.826 1.579 0.065 0.25-0.088 0.504-0.341 0.569-0.259 0.064-0.513-0.090-0.577-0.336z"></path>
</symbol>
<symbol id="icon-fire" viewBox="0 0 26 32">
<path fill="#ff6b09" style="fill: var(--color1, #ff6b09)" d="M22.642 16.003c-0.275-0.613-0.654-1.216-1.208-1.912-1.398-1.749-1.824-5.649-1.829-5.686-0.019-0.187-0.152-0.341-0.327-0.397-0.18-0.056-0.374-0.005-0.502 0.136-1.668 1.856-0.967 4.723-0.588 5.869 0.104 0.313 0.218 0.683 0.298 1.057 0.616 3.025-0.573 4.396-0.853 4.672-0.27 0.075-0.455 0.037-0.625-0.145-0.588-0.641-0.782-2.74-0.507-5.476 0.057-0.556 0.043-1.057-0.038-1.524-0.58-3.362-2.704-5.519-3.245-6.275-1.488-2.188-1.639-5.831-1.644-5.864-0.005-0.173-0.104-0.327-0.261-0.402-0.152-0.075-0.336-0.065-0.479 0.033-2.483 1.679-2.269 5.724-1.924 7.982 0.081 0.524 0.237 1.057 0.507 1.73 0.962 2.408-0.19 5.518-0.199 5.546s-0.019 0.051-0.024 0.079c-0.147 0.767-0.393 1.225-0.668 1.225-0.028 0-0.057-0.005-0.090-0.014-0.336-0.070-0.512-0.426-0.516-0.734-0.019-3.989-4.041-5.331-4.084-5.345-0.18-0.056-0.379-0.005-0.502 0.14-0.128 0.145-0.152 0.346-0.066 0.514 0.047 0.098 0.199 0.528 0.095 2.048-0.090 1.365-0.341 2.717-0.744 4.012-0.957 3.105-0.805 6.046-0.796 6.187 0.736 7.964 12.245 9.359 19.075 4.873 0.748-0.491 1.36-1.052 1.81-1.669 2.521-3.46 1.038-8.16-0.066-10.657zM5.135 23.611c0.014 0.257-0.185 0.477-0.445 0.491h-0.028c-0.251 0-0.46-0.192-0.474-0.44-0.043-0.683-0.033-1.398 0.019-2.174 0.019-0.257 0.246-0.449 0.507-0.435 0.261 0.019 0.46 0.243 0.441 0.5-0.052 0.739-0.062 1.412-0.019 2.058zM5.368 19.468c-0.028 0.238-0.232 0.412-0.469 0.412-0.019 0-0.038 0-0.062-0.005-0.256-0.033-0.441-0.262-0.412-0.519l0.227-1.805c0.033-0.252 0.265-0.435 0.531-0.407 0.261 0.033 0.445 0.267 0.412 0.524l-0.227 1.8z"></path>
<path fill="#ff6b09" style="fill: var(--color1, #ff6b09)" d="M19.437 6.397c-0.258-0.040-0.436-0.278-0.396-0.533 0.030-0.19 0.201-1.163 0.665-1.652 0.179-0.189 0.478-0.198 0.67-0.021s0.2 0.472 0.021 0.661c-0.197 0.207-0.364 0.8-0.42 1.154-0.040 0.252-0.279 0.429-0.541 0.39z"></path>
<path fill="#ff6b09" style="fill: var(--color1, #ff6b09)" d="M2.164 8.727c-0.091-0.348-0.316-0.921-0.532-1.109-0.197-0.17-0.217-0.466-0.044-0.66s0.471-0.214 0.669-0.043c0.511 0.442 0.777 1.393 0.826 1.579 0.065 0.25-0.088 0.504-0.341 0.569-0.259 0.064-0.513-0.090-0.577-0.336z"></path>
</symbol>
<symbol id="icon-menu-open" viewBox="0 0 55 32">
<path d="M0 32h54.857v-5.333h-54.857v5.333zM0 18.667h54.857v-5.333h-54.857v5.333zM0 0v5.333h54.857v-5.333h-54.857z"></path>
</symbol>
<symbol id="icon-menu-close" viewBox="0 0 32 32">
<path d="M13.401 16l-13.401 13.401 2.599 2.599 13.401-13.401 13.401 13.401 2.599-2.599-13.401-13.401 13.401-13.401-2.599-2.599-13.401 13.401-13.401-13.401-2.599 2.599 13.401 13.401z"></path>
</symbol>
<symbol id="icon-instagram" viewBox="0 0 32 32">
<path fill="#000" style="fill: var(--color1, #000)" d="M31.452 5.724c-0.291-2.729-2.447-4.885-5.176-5.176-6.844-0.73-13.709-0.73-20.553 0-2.729 0.291-4.885 2.447-5.176 5.176-0.73 6.844-0.73 13.709 0 20.553 0.291 2.729 2.447 4.885 5.176 5.176 6.844 0.73 13.709 0.73 20.553 0 2.729-0.291 4.884-2.447 5.176-5.176 0.73-6.844 0.73-13.708 0-20.553z"></path>
<path fill="#000" style="fill: var(--color1, #000)" d="M29.712 6.881c-0.258-2.422-2.171-4.334-4.593-4.593-6.073-0.648-12.165-0.648-18.238 0-2.422 0.259-4.334 2.171-4.593 4.593-0.648 6.073-0.648 12.165 0 18.238 0.259 2.422 2.171 4.335 4.593 4.593 6.073 0.648 12.165 0.648 18.238 0 2.422-0.258 4.335-2.171 4.593-4.593 0.648-6.073 0.648-12.164 0-18.238z"></path>
<path fill="#000" style="fill: var(--color1, #000)" d="M0.48 25.613c0.022 0.221 0.045 0.442 0.068 0.664 0.291 2.729 2.447 4.884 5.176 5.176 6.844 0.73 13.709 0.73 20.552 0 2.729-0.291 4.885-2.447 5.176-5.176 0.024-0.221 0.046-0.442 0.069-0.664h-31.041z"></path>
<path fill="#000" style="fill: var(--color1, #000)" d="M31.452 26.276c0.393-3.678 0.574-7.361 0.544-11.044l-7.314-7.314c-0.914-1.043-2.249-1.694-3.817-1.751-3.225-0.116-6.461-0.11-9.687 0-2.679 0.092-4.553 1.893-5.033 4.54-0.085 0.467-0.136 0.941-0.202 1.411v7.759c0.037 0.252 0.091 0.502 0.108 0.755 0.107 1.61 0.769 2.989 1.828 3.922l7.443 7.443c3.653 0.026 7.306-0.156 10.954-0.545 2.729-0.291 4.884-2.447 5.176-5.176z"></path>
<path fill="#000" style="fill: var(--color1, #000)" d="M31.452 26.276c-0.291 2.729-2.447 4.885-5.176 5.176-3.647 0.389-7.301 0.571-10.953 0.545l-7.432-7.432c0.862 0.754 1.985 1.213 3.288 1.262 3.225 0.121 6.461 0.118 9.686 0.002 2.917-0.106 5.028-2.264 5.119-5.181 0.097-3.097 0.097-6.202 0-9.3-0.042-1.346-0.514-2.53-1.297-3.426l7.31 7.31c0.029 3.682-0.152 7.366-0.545 11.044z"></path>
<path fill="#000" style="fill: var(--color1, #000)" d="M19.776 12.535c-0.937-1.020-2.282-1.66-3.776-1.66-2.831 0-5.125 2.295-5.125 5.126 0 1.494 0.64 2.839 1.66 3.776l11.859 11.859c0.628-0.055 1.255-0.115 1.883-0.182 2.729-0.291 4.885-2.447 5.176-5.176 0.067-0.627 0.128-1.255 0.182-1.883l-11.859-11.859z"></path>
<path fill="#000" style="fill: var(--color1, #000)" d="M31.938 19.447l-9.544-9.544c-0.223-0.292-0.573-0.482-0.969-0.482-0.673 0-1.22 0.546-1.22 1.22 0 0.396 0.19 0.747 0.482 0.969l11.080 11.080c0.075-1.081 0.132-2.162 0.171-3.243z"></path>
<path fill="#000" style="fill: var(--color1, #000)" d="M5.943 12.119c0.067-0.471 0.117-0.944 0.202-1.411 0.48-2.647 2.354-4.447 5.033-4.54 3.226-0.111 6.461-0.117 9.687-0 2.916 0.105 5.028 2.264 5.119 5.181 0.097 3.097 0.097 6.202 0 9.3-0.091 2.917-2.202 5.076-5.119 5.181-3.225 0.116-6.462 0.119-9.687-0.002-2.916-0.11-4.933-2.274-5.128-5.195-0.017-0.253-0.071-0.503-0.108-0.755 0-2.586 0-5.173 0-7.759zM16.003 24.101c1.476 0 2.954 0.044 4.428-0.010 2.311-0.086 3.733-1.465 3.787-3.774 0.067-2.877 0.067-5.758 0-8.636-0.054-2.309-1.477-3.72-3.787-3.769-2.932-0.062-5.868-0.062-8.8 0-2.293 0.048-3.719 1.431-3.781 3.714-0.079 2.914-0.079 5.832 0 8.746 0.062 2.283 1.488 3.634 3.781 3.719 1.456 0.054 2.915 0.010 4.372 0.010z"></path>
<path fill="#fff" style="fill: var(--color2, #fff)" d="M5.943 12.119c0.067-0.471 0.117-0.944 0.202-1.411 0.48-2.647 2.354-4.447 5.033-4.54 3.226-0.111 6.461-0.117 9.687-0 2.916 0.105 5.028 2.264 5.119 5.181 0.097 3.097 0.097 6.202 0 9.3-0.091 2.917-2.202 5.076-5.119 5.181-3.225 0.116-6.462 0.119-9.687-0.002-2.916-0.11-4.933-2.274-5.128-5.195-0.017-0.253-0.071-0.503-0.108-0.755 0-2.586 0-5.173 0-7.759zM16.003 24.101c1.476 0 2.954 0.044 4.428-0.010 2.311-0.086 3.733-1.465 3.787-3.774 0.067-2.877 0.067-5.758 0-8.636-0.054-2.309-1.477-3.72-3.787-3.769-2.932-0.062-5.868-0.062-8.8 0-2.293 0.048-3.719 1.431-3.781 3.714-0.079 2.914-0.079 5.832 0 8.746 0.062 2.283 1.488 3.634 3.781 3.719 1.456 0.054 2.915 0.010 4.372 0.010z"></path>
<path fill="#fff" style="fill: var(--color2, #fff)" d="M16 10.875c-2.831 0-5.125 2.295-5.125 5.125s2.295 5.126 5.125 5.126c2.831 0 5.126-2.295 5.126-5.126s-2.295-5.125-5.126-5.125zM16 19.361c-1.856 0-3.361-1.505-3.361-3.361s1.505-3.361 3.361-3.361c1.856 0 3.361 1.505 3.361 3.361s-1.505 3.361-3.361 3.361z"></path>
<path fill="#fff" style="fill: var(--color2, #fff)" d="M22.644 10.641c0 0.673-0.546 1.219-1.219 1.219s-1.22-0.546-1.22-1.219c0-0.674 0.546-1.22 1.22-1.22s1.219 0.546 1.219 1.22z"></path>
</symbol>
<symbol id="icon-phone" viewBox="0 0 34 32">
<path d="M4.902 0.003c-0.542 0.025-1.075 0.253-1.465 0.678l-2.731 2.969c0.004-0.009-0.011-0.008-0.088 0.101-0.041 0.056-0.073 0.118-0.095 0.184-1.112 3.502-0.366 7.354 1.449 11.018s4.711 7.17 8.035 10.047 7.075 5.128 10.651 6.244c3.576 1.116 7.044 1.102 9.614-0.742 0.028-0.020 0.054-0.043 0.078-0.067 0.067-0.067 0.070-0.075 0.059-0.065l0.010-0.013 2.718-2.956c0.781-0.849 0.718-2.184-0.141-2.956l-6.448-5.799c-0.859-0.772-2.208-0.711-2.989 0.138l-2.918 3.173c-2.368-0.678-4.393-1.828-6.34-3.579s-3.297-3.637-4.203-5.905l2.917-3.173c0.781-0.849 0.719-2.184-0.14-2.956l-6.448-5.799c-0.429-0.386-0.982-0.564-1.524-0.539l-0.001 0zM4.963 1.304c0.2-0.009 0.403 0.060 0.569 0.209l6.448 5.799c0.332 0.299 0.355 0.776 0.053 1.104l-3.224 3.504c-0.081 0.089-0.136 0.197-0.159 0.315s-0.013 0.239 0.028 0.351c0.979 2.641 2.557 4.807 4.729 6.761s4.5 3.304 7.251 4.017c0.117 0.030 0.241 0.029 0.357-0.005s0.221-0.099 0.302-0.187l3.225-3.505c0.302-0.328 0.784-0.35 1.116-0.051l6.449 5.8c0.332 0.299 0.354 0.775 0.052 1.103l-2.696 2.931c-2.109 1.497-5.080 1.581-8.406 0.542-3.34-1.043-6.966-3.202-10.175-5.98s-6.002-6.169-7.718-9.633c-1.699-3.429-2.315-6.895-1.381-9.95l2.634-2.862c0.151-0.164 0.348-0.252 0.547-0.261l0 0z"></path>
</symbol>
<symbol id="study-program" viewBox="0 0 31 32">
<path  d="M30.151 4.961l-0.001-0.003c-0.015-0.035-0.035-0.065-0.060-0.090v0l-4.806-4.806c-0.012-0.012-0.025-0.023-0.039-0.032l-0.001-0.001-0.009-0.005c-0.010-0.007-0.022-0.013-0.034-0.019l-0.002-0.001c-0.005-0.001-0.008-0.003-0.012-0.004-0.029-0.012-0.063-0.019-0.098-0.020h-0l-0.005-0.001h-21.171c-0.157 0-0.284 0.127-0.284 0.284v29.311c0 0.019 0.002 0.037 0.006 0.055 0.001 0.008 0.005 0.015 0.007 0.023l0.009 0.030 0.013 0.025c0.005 0.007 0.008 0.016 0.013 0.023 0.010 0.015 0.021 0.028 0.032 0.040l-0-0 0.003 0.003 2.164 2.165c0.051 0.052 0.122 0.083 0.201 0.083s0.15-0.032 0.201-0.083v0l1.965-1.964 1.963 1.964c0.051 0.052 0.122 0.084 0.201 0.084s0.15-0.032 0.201-0.084l1.963-1.963 1.965 1.963c0.051 0.052 0.123 0.083 0.201 0.083s0.15-0.032 0.201-0.083v0l1.963-1.963 1.963 1.963c0.051 0.051 0.122 0.083 0.201 0.083s0.149-0.032 0.201-0.083v0l1.965-1.964 1.963 1.964c0.051 0.052 0.122 0.084 0.201 0.084s0.15-0.032 0.201-0.084l1.963-1.963 1.965 1.963c0.051 0.051 0.122 0.083 0.201 0.083s0.149-0.032 0.201-0.083v0l2.165-2.165c0.005-0.004 0.007-0.009 0.011-0.013 0.008-0.009 0.017-0.019 0.023-0.029 0.007-0.009 0.011-0.020 0.017-0.030l0.009-0.019c0.006-0.013 0.009-0.027 0.012-0.040 0.001-0.004 0.004-0.008 0.005-0.013 0.004-0.017 0.006-0.037 0.006-0.057v-24.503c-0.001-0.039-0.009-0.077-0.023-0.111l0.001 0.002zM25.367 0.949l3.835 3.835h-3.835v-3.835zM29.604 29.456l-1.88 1.88-1.965-1.964c-0.051-0.051-0.122-0.083-0.201-0.083s-0.149 0.032-0.201 0.083v0l-1.964 1.964-1.963-1.964c-0.051-0.051-0.122-0.083-0.201-0.083s-0.149 0.032-0.201 0.083v0l-1.965 1.964-1.963-1.964c-0.051-0.052-0.122-0.084-0.201-0.084s-0.15 0.032-0.201 0.084v0l-1.963 1.964-1.965-1.964c-0.051-0.051-0.122-0.083-0.201-0.083s-0.149 0.032-0.201 0.083v0l-1.963 1.964-1.964-1.964c-0.052-0.051-0.123-0.083-0.201-0.083s-0.149 0.032-0.201 0.083v0l-1.965 1.964-1.88-1.88v-28.909h20.603v4.522c0 0.157 0.127 0.284 0.284 0.284h4.521v24.103z"></path>
<path  d="M6.314 3.234h9.303c0.157 0 0.284-0.127 0.284-0.284s-0.127-0.284-0.284-0.284h-9.304c-0.157 0-0.284 0.127-0.284 0.284s0.127 0.284 0.284 0.284v0zM6.314 4.991h14.919c0.157 0 0.284-0.127 0.284-0.284s-0.127-0.284-0.284-0.284v0h-14.919c-0.157 0-0.284 0.127-0.284 0.284s0.127 0.284 0.284 0.284v0zM6.030 6.568v9.199c0 0.157 0.127 0.284 0.284 0.284h21.173c0.157 0 0.284-0.127 0.284-0.284v-9.199c0-0.157-0.127-0.284-0.284-0.284v0h-21.173c-0.157 0-0.284 0.127-0.284 0.284v0zM12.309 6.852h14.893v2.445h-14.893v-2.445zM12.309 9.865h14.893v2.444h-14.893v-2.444zM12.309 12.877h14.893v2.605h-14.893v-2.605zM6.598 6.852h5.143v2.445h-5.143v-2.445zM6.598 9.865h5.143v2.444h-5.143v-2.444zM6.598 12.877h5.143v2.605h-5.143v-2.605zM27.487 17.329h-21.173c-0.157 0-0.284 0.127-0.284 0.284v0 9.198c0 0.157 0.127 0.284 0.284 0.284s0.284-0.127 0.284-0.284v-2.889h5.142v2.889c0 0.157 0.127 0.284 0.284 0.284s0.284-0.127 0.284-0.284v0-2.889h14.893v2.889c0 0.157 0.127 0.284 0.284 0.284s0.284-0.127 0.284-0.284v0-9.198c0-0 0-0.001 0-0.001 0-0.156-0.127-0.283-0.283-0.283-0 0-0 0-0.001 0h0zM11.74 23.353h-5.141v-2.443h5.143v2.443zM11.74 20.341h-5.141v-2.444h5.143v2.444zM27.202 23.353h-14.893v-2.443h14.893v2.443zM27.202 20.341h-14.893v-2.444h14.893v2.444zM2.281-0.021c0 0 0 0 0 0-0.157 0-0.284 0.127-0.284 0.284 0 0 0 0 0 0.001v-0 29.31c0 0.157 0.127 0.284 0.284 0.284s0.284-0.127 0.284-0.284v0-29.31c0-0 0-0 0-0.001 0-0.157-0.127-0.284-0.284-0.284-0 0-0 0-0.001 0h0zM0.719-0.021c-0 0-0.001 0-0.001 0-0.157 0-0.284 0.127-0.284 0.284 0 0 0 0 0 0.001v-0 29.31c0 0.157 0.127 0.284 0.284 0.284s0.284-0.127 0.284-0.284v0-29.31c0-0 0-0 0-0.001 0-0.157-0.127-0.284-0.283-0.284h-0z"></path>
</symbol>
<symbol id="mobile-learning" viewBox="0 0 33 32">
<path  d="M30.175-0.128h-15.746c-1.026 0.001-1.858 0.833-1.859 1.859v6.519l-11.698 4.909c-0.139 0.059-0.235 0.194-0.235 0.352 0 0.138 0.074 0.26 0.184 0.326l0.002 0.001 1.492 0.893v9.516c-0.77 0.181-1.334 0.861-1.335 1.673v0.917c0 0.211 0.17 0.381 0.381 0.381h2.671c0.211 0 0.381-0.171 0.381-0.381v0-0.917c0-0.816-0.573-1.498-1.337-1.673v-9.060l1.18 0.706c-0.036 0.272-0.005-0.474-0.017 4.43 0 1.612 4.129 2.476 8.33 2.525v7.425c0 1.025 0.832 1.856 1.857 1.856 0 0 0.001 0 0.001 0h15.746c1.025-0.001 1.856-0.832 1.857-1.857v-0c0 0.051-0.002-1.573 0-28.539 0-1.012-0.836-1.859-1.856-1.859zM3.652 25.918v0.537h-1.91v-0.537c0-0.528 0.428-0.957 0.953-0.957 0.528 0 0.957 0.43 0.957 0.957zM30.175 31.364h-15.746c-0.378 0-0.711-0.191-0.909-0.481-0.117-0.171-0.187-0.383-0.187-0.61 0-0.001 0-0.001 0-0.002v0-2.574h17.934v2.575c0 0.596-0.497 1.092-1.092 1.092zM31.267 26.935h-17.935v-4.086c2.051-0.023 8.335-0.475 8.335-2.527-0.002-3.080 0.005-4.33-0.010-4.436l3.421-2.049c0.111-0.068 0.184-0.189 0.184-0.326 0-0.157-0.095-0.292-0.23-0.35l-0.002-0.001-11.698-4.91v-3.182h17.935v21.868zM12.951 17.792c-2.113 0-6.181 0.273-7.949 1.427 0.012-3.53-0.123-3.3 0.313-3.6 1.098-0.808 4.238-1.373 7.636-1.373 1.483 0 7.954 0.407 7.954 1.777v3.196c-1.784-1.165-5.832-1.428-7.954-1.428zM13.333 1.731c0.001-0.604 0.491-1.094 1.095-1.094h15.746c0.604 0 1.093 0.498 1.093 1.095v2.574h-17.934v-2.574zM12.952 8.915l11.090 4.655-2.748 1.644c-1.461-1.449-6.294-1.729-8.342-1.729-2.051 0-6.883 0.281-8.342 1.729l-2.749-1.644 11.091-4.655zM5.002 20.321c0-0.616 2.73-1.768 7.949-1.768 5.222 0 7.954 1.151 7.954 1.767s-2.732 1.768-7.954 1.768c-5.219 0-7.949-1.151-7.949-1.768z"></path>
<path  d="M22.301 28.271c-0.694 0-1.26 0.565-1.26 1.26 0 0.696 0.565 1.261 1.26 1.261s1.26-0.565 1.26-1.26c0-0.694-0.565-1.26-1.26-1.26zM22.301 30.030c-0.264-0.014-0.473-0.232-0.473-0.498s0.209-0.484 0.472-0.498l0.001-0c0.275 0 0.498 0.223 0.498 0.498s-0.223 0.498-0.498 0.498v0zM23.755 2.090h-2.907v0.761h2.907v-0.761z"></path>
</symbol>
<symbol id="open-book" viewBox="0 0 46 32">
<path  d="M20.267 4.608h-13.64v1.021h13.64v-1.021zM20.267 8.416h-11.598v1.021h11.597v-1.021zM20.267 12.224h-13.64v1.021h13.64v-1.021zM20.267 16.032h-11.598v1.021h11.597v-1.021zM20.267 19.84h-13.64v1.021h13.64v-1.021zM20.267 23.648h-11.598v1.021h11.597v-1.021zM38.99 4.608h-13.64v1.021h13.64v-1.021zM36.947 8.416h-11.597v1.021h11.597v-1.021zM38.99 12.224h-13.64v1.021h13.64v-1.021zM36.947 16.032h-11.597v1.021h11.597v-1.021zM38.99 19.84h-13.64v1.021h13.64v-1.021zM36.947 23.648h-11.597v1.021h11.597v-1.021z"></path>
<path  d="M43.915 3.445h-1.872v-2.812c0-0.282-0.229-0.511-0.511-0.511v0h-15.265c-0.005-0-0.011-0-0.017-0-1.469 0-2.75 0.802-3.431 1.991l-0.010 0.019c-0.691-1.209-1.972-2.011-3.441-2.011-0.006 0-0.013 0-0.019 0h-15.263c-0.282 0-0.511 0.229-0.511 0.511v0 2.812h-1.873c-0.282 0-0.511 0.229-0.511 0.511v0 27.411c0 0.282 0.229 0.511 0.511 0.511h42.213c0.282-0 0.51-0.229 0.51-0.511 0 0 0 0 0 0v0-27.411c0-0.282-0.229-0.511-0.511-0.511v0zM26.267 1.144h14.753v27.349h-15.842c-0.703 0-1.405 0.296-1.859 0.68v-25.088c0-0.003 0-0.006 0-0.009 0-1.619 1.313-2.932 2.932-2.932 0.005 0 0.010 0 0.015 0h-0.001zM4.595 1.144h14.754c0.006-0 0.013-0 0.020-0 1.581 0 2.869 1.255 2.922 2.824l0 0.005c0.001 0.022 0.003 0.091 0.007 0.113v25.087c-0.453-0.383-1.148-0.678-1.852-0.678h-15.851v-27.35zM2.213 4.467h1.362v24.538c0 0.282 0.229 0.511 0.511 0.511h16.36c0.779 0 1.531 0.511 1.772 1.341h-20.005v-26.389zM43.405 30.856h-20.005c0.227-0.78 0.936-1.341 1.775-1.341 0.001 0 0.002 0 0.003 0h16.353c0 0 0 0 0.001 0 0.282 0 0.511-0.229 0.511-0.511v0-24.538h1.361v26.389z"></path>
</symbol>
<symbol id="female-student" viewBox="0 0 27 32">
<path  d="M-0.102 31.759h26.785c0.132-3.055-0.087-8.123-1.965-10.535l-0.068-0.087-4.103-2.060c0.089-0.301 0.133-0.576 0.151-0.779 0.020-0.243-0.013-0.471-0.1-0.678-0.677-1.62-2.11-2.472-2.898-2.835 0.24-0.484 0.395-1.003 0.47-1.534 0.456-0.131 0.805-0.489 0.921-0.942l0.002-0.009 0.479-1.947c0.025-0.096 0.040-0.207 0.040-0.32 0-0.252-0.071-0.487-0.194-0.687l0.003 0.006c-0.081-0.13-0.178-0.24-0.292-0.332l-0.002-0.002c1.351-3.068-0.911-5.96-1.035-6.113-2.45-2.648-5.545-2.153-5.708-2.123-4.467 0.935-6.19 4.358-5.217 8.372-0.212 0.233-0.341 0.544-0.341 0.885 0 0.112 0.014 0.221 0.040 0.325l-0.002-0.009 0.481 1.949c0.117 0.468 0.473 0.82 0.916 0.947 0.142 0.989 0.554 1.863 1.158 2.567l-0.006-0.007v1.543c-6.409 3.282-2.348 1.188-7.484 3.787-0.010 0.048-2.41 2.599-2.053 10.158l0.022 0.462zM25.751 30.789h-4.408v-1.852l2.915-6.675c1.461 2.425 1.515 7.053 1.493 8.527zM19.735 18.216c-0.17 1.955-1.242 1.364-1.903 2.869-0.52-0.572-0.677-1.258-0.537-1.993 0.253-1.349-0.57-1.749-0.367-3.166l0.031-0.032v-0.005c0.017-0.020 0.18-0.213 0.227-0.274 1.745 0.76 2.584 2.174 2.55 2.6zM10.379 16.681c0.793 0.559 1.778 0.894 2.842 0.894 1.017 0 1.963-0.306 2.75-0.831l-0.018 0.011c0.112 1.113 0.547 1.337 0.393 2.157-0.025 0.128-0.044 0.283-0.054 0.44l-0 0.010-3.003 3.383-3.837-4.327 0.927-0.483v-1.254zM9.172 12.539v-5.172c0.467-0.864 1.104-1.491 1.896-1.867 2.12 1.2 4.56 2.99 6.197 4.792-0.001 2.294 0.007 2.3-0.009 2.489l-0.001 0.012c-0.127 2.084-1.84 3.811-4.037 3.811-2.136 0-3.909-1.677-4.037-3.831-0.005-0.063-0.008-0.136-0.008-0.21 0-0.008 0-0.016 0-0.024v0.001zM8.574 18.886l4.716 5.317 3.167-3.569c0.072 0.209 0.173 0.405 0.29 0.596l-3.457 4.322-5.153-6.446 0.437-0.22zM18.231 11.759v-1.498l0.36-0.413c0.020 0.759 0.101-0.136-0.36 1.911zM12.562 1.733c0.191 0.012 2.765-0.391 4.799 1.805 0.080 0.1 1.736 2.233 1.071 4.567-0.227-1.039-0.624-2.369-1.251-3.004l-0.685 0.683c0.619 0.627 1.025 2.537 1.18 3.527-2.84-2.972-6.504-4.853-6.554-4.885-0.184 0.114-1.735 0.409-2.86 2.598l-0.054 0.104v1.608l-0.142 0.001c-0.716-3.455 0.655-6.199 4.497-7.004zM7.963 9.735l0.244 0.987v1.038l-0.405-1.64c-0.059-0.244 0.121-0.337 0.161-0.385zM7.253 19.55l6.037 7.551 4.085-5.109c0.444 0.398 0.658 0.454 1.6 0.939l-0.318-1.078c-0.080-0.273 0.239-0.713 0.431-0.914 0.434-0.238 0.79-0.568 1.051-0.966l0.007-0.011 3.333 1.673-3.101 7.1v2.055h-14.177v-2.056l-3.102-7.099 4.153-2.085zM2.321 22.265l2.916 6.673v1.851h-4.409c-0.023-1.473 0.032-6.1 1.492-8.525z"></path>
</symbol>
<symbol id="audio-book" viewBox="0 0 39 32">
<path  d="M3.047 29.453h12.23c0.618 1.262 1.893 2.115 3.367 2.115 0.005 0 0.009 0 0.014-0h0.772c0.004 0 0.010 0 0.015 0 1.474 0 2.748-0.854 3.356-2.093l0.010-0.022h12.237c1.262-0.001 2.285-1.024 2.286-2.286v-21.905c-0.002-1.262-1.024-2.284-2.286-2.285h-1.234v-1.021c-0.001-0.841-0.683-1.523-1.524-1.523h-26.491c-0.841 0.001-1.522 0.682-1.523 1.523v1.021h-1.227c-1.262 0.001-2.285 1.023-2.287 2.285v21.905c0.001 1.262 1.024 2.285 2.287 2.286h0zM32.287 24.751h-12.477v-17.705c2.884 0.377 5.12 2.845 5.12 5.831v0.687l-0.18-0.040c-0.049-0.011-0.106-0.018-0.164-0.018-0.363 0-0.666 0.253-0.743 0.593l-0.001 0.005-1.213 5.52c-0.011 0.049-0.018 0.105-0.018 0.163 0 0.363 0.254 0.666 0.593 0.743l0.005 0.001 2.621 0.578c0.135 0.029 0.273 0.043 0.411 0.043 0.922 0 1.707-0.631 1.908-1.535l0.701-3.192c0.029-0.125 0.045-0.269 0.045-0.417 0-0.928-0.648-1.706-1.516-1.904l-0.013-0.003-0.912-0.201v-1.023c0-3.827-2.917-6.987-6.645-7.371v-3.551h12.48l-0.001 22.796zM25.167 15.177l1.871 0.412c0.234 0.052 0.377 0.275 0.325 0.508l-0.701 3.191c-0.051 0.231-0.306 0.374-0.507 0.331l-1.873-0.413 0.886-4.029zM5.798 1.955h12.487v3.55c-3.731 0.381-6.651 3.542-6.651 7.372v1.022l-0.913 0.202c-0.517 0.115-0.947 0.425-1.219 0.846l-0.005 0.008c-0.193 0.295-0.307 0.657-0.307 1.045 0 0.15 0.017 0.297 0.050 0.437l-0.003-0.013 0.701 3.189c0.199 0.887 0.98 1.539 1.913 1.539 0.146 0 0.289-0.016 0.426-0.046l-0.013 0.002 2.61-0.577c0.344-0.078 0.598-0.381 0.598-0.744 0-0.058-0.006-0.114-0.019-0.168l0.001 0.005-1.213-5.519c-0.077-0.345-0.38-0.598-0.743-0.598-0.059 0-0.116 0.007-0.171 0.019l0.005-0.001-0.173 0.038v-0.685c0-2.988 2.24-5.458 5.127-5.832v17.707h-12.487v-22.797zM12.916 15.177l0.887 4.029-1.863 0.411c-0.027 0.006-0.058 0.009-0.089 0.009-0.205 0-0.377-0.142-0.421-0.334l-0.001-0.003-0.702-3.196c-0.007-0.028-0.011-0.060-0.011-0.094 0-0.084 0.025-0.161 0.067-0.227l-0.001 0.002c0.061-0.094 0.154-0.161 0.264-0.186l0.003-0.001 1.867-0.412zM2.285 5.262c0-0.42 0.342-0.762 0.762-0.762h1.227v20.251c0.001 0.841 0.683 1.523 1.524 1.524h26.491c0.841-0.001 1.523-0.682 1.524-1.523v-20.252h1.234c0.42 0 0.762 0.342 0.762 0.762v21.905c0 0.42-0.341 0.762-0.762 0.762h-12.754c-0.335 0-0.631 0.219-0.729 0.539-0.285 0.92-1.129 1.577-2.126 1.577-0.003 0-0.006 0-0.009-0h-0.772c-0.001 0-0.002 0-0.003 0-1.002 0-1.849-0.661-2.13-1.571l-0.004-0.016c-0.101-0.31-0.388-0.529-0.725-0.529h-12.747c-0.421 0-0.763-0.342-0.763-0.762v-21.905z"></path>
</symbol>
<symbol id="group" viewBox="0 0 33 32">
<path  d="M1.993 12.558v2.831c0 0.152 0.070 0.295 0.189 0.39 1.864 1.471 4.247 2.36 6.837 2.362h0c0.74 0 1.481-0.077 2.207-0.224 1.433 0.652 3.108 1.032 4.872 1.032 0.006 0 0.012 0 0.018 0h-0.001c1.707 0 3.351-0.349 4.891-1.032 3.091 0.625 6.384-0.046 9.042-2.138 0.116-0.092 0.189-0.232 0.189-0.39v0-2.831c0-0.415-0.207-0.794-0.575-1.027l-3.867-2.176c0.845-1.073 1.476-2.602 1.585-3.913 0.321-2.256-1.518-4.646-4.165-4.646-1.113 0-2.171 0.459-2.948 1.227-0.027 0.027-0.057 0.049-0.083 0.077-0.024 0.025-0.043 0.054-0.067 0.080-0.016 0.017-0.029 0.035-0.045 0.053-0.756-1.381-2.21-2.233-3.923-2.233-0.167 0-0.33 0.011-0.492 0.028-0.010-0.001-0.018-0.006-0.028-0.006-0.092 0-0.287 0.025-0.391 0.055-0.015 0.004-0.027 0.015-0.041 0.021-1.296 0.262-2.369 1.054-3.002 2.135l-0.011 0.021c-0.77-0.894-1.904-1.457-3.169-1.457-0.003 0-0.007 0-0.010 0h0.001c-3.908 0-5.641 4.612-2.557 8.581l-3.903 2.167c-0.347 0.219-0.553 0.599-0.553 1.014zM20.997 16.828c-0.084 0.041-0.167 0.085-0.251 0.123l-0.002 0.001c-1.349 0.635-2.929 1.006-4.596 1.006-0.011 0-0.021 0-0.032-0h0.002c-0.008 0-0.016 0-0.025 0-2.509 0-4.823-0.837-6.677-2.248l0.027 0.020v-2.87c0-0.097 0.048-0.184 0.103-0.221l4.542-2.525c0.565 0.48 1.287 0.832 2.035 0.832 0.721 0 1.499-0.357 2.053-0.843l4.487 2.52c0.083 0.053 0.131 0.139 0.131 0.237v2.87c-0.52 0.395-1.108 0.76-1.729 1.069l-0.064 0.029zM29.155 12.381c0.056 0.037 0.092 0.099 0.092 0.169 0 0.003-0 0.005-0 0.008v-0 2.587c-1.969 1.477-4.337 2.148-6.737 1.98 0.419-0.265 0.772-0.515 1.112-0.782l-0.028 0.022c0.116-0.092 0.189-0.232 0.189-0.39 0-0 0-0 0-0v0-3.115c0-0.435-0.218-0.835-0.61-1.087l-2.383-1.339 0.58-0.321c0.703 0.573 1.307 0.744 1.848 0.744 0.663 0 1.36-0.325 1.878-0.759l4.060 2.284zM23.217 1.788c1.38 0 2.593 0.902 3.021 2.142-0.889-0.115-1.664-0.531-2.235-1.14l-0.002-0.002c-0.091-0.097-0.22-0.158-0.363-0.158-0.18 0-0.338 0.096-0.425 0.24l-0.001 0.002c-0.546 0.916-1.456 1.567-2.525 1.757l-0.022 0.003v-0.003c0-0.024 0.001-0.051 0.001-0.079 0-0.202-0.012-0.402-0.036-0.598l0.002 0.023-0.007-0.066c-0.034-0.24-0.077-0.446-0.131-0.647l0.009 0.038c0.563-0.902 1.609-1.513 2.713-1.513zM20.557 5.643c1.291-0.143 2.407-0.797 3.156-1.751l0.008-0.010c0.767 0.629 1.74 1.010 2.702 1.056-0.007 1.792-1.471 4.927-3.207 4.927-1.337 0-2.478-1.912-2.905-3.238 0.108-0.341 0.187-0.669 0.245-0.983zM20.657 9.373l-0.885 0.491-0.895-0.503c0.331-0.413 0.636-0.893 0.896-1.413 0.251 0.527 0.551 1.010 0.885 1.425zM19.32 6.465c-0.478 1.427-1.705 3.49-3.199 3.49-1.742 0-3.225-2.864-3.508-4.696 0.075-0.019 2.429 0.127 4.049-2.001 0.822 0.688 1.931 1.143 3.011 1.188 0.013 0.647-0.144 1.407-0.353 2.019zM16.15 0.991c2.78 0 3.309 2.393 3.352 2.443-1.017-0.113-1.907-0.581-2.561-1.274l-0.002-0.002c-0.091-0.097-0.219-0.157-0.362-0.157-0.181 0-0.339 0.097-0.426 0.242l-0.001 0.002c-0.533 0.901-1.379 1.569-2.385 1.86l-0.029 0.007c-0.342 0.097-0.734 0.153-1.14 0.153-0.009 0-0.019-0-0.028-0h0.001c0.136-1.821 1.597-3.273 3.581-3.273zM12.461 7.938c0.257 0.515 0.563 1.007 0.913 1.439l-0.876 0.487-0.907-0.51c0.344-0.439 0.636-0.929 0.869-1.415zM9.007 1.788c1.125 0 2.155 0.571 2.729 1.514-0.029 0.1-0.107 0.498-0.117 0.548-0.723-0.179-1.342-0.552-1.818-1.061l-0.002-0.002c-0.091-0.097-0.219-0.157-0.362-0.157-0.181 0-0.339 0.097-0.425 0.242l-0.001 0.002c-0.657 1.090-1.832 1.81-3.177 1.815h-0.001c0.158-1.627 1.518-2.9 3.173-2.9zM5.876 5.677c1.475-0.018 2.784-0.712 3.635-1.786l0.007-0.010c0.57 0.468 1.264 0.806 2.026 0.956l0.029 0.005c0.029 0.575 0.179 1.273 0.351 1.789-0.274 0.84-0.799 1.84-1.451 2.505-0.005 0.004-0.010 0.006-0.013 0.010-0.409 0.43-0.989 0.719-1.445 0.719-1.593 0-2.841-2.508-3.14-4.188zM2.985 12.558c0-0.075 0.033-0.139 0.067-0.162l4.117-2.284c0.247 0.206 0.303 0.229 0.353 0.265 0.484 0.323 0.928 0.483 1.533 0.483 0.645 0 1.233-0.273 1.749-0.694 0.029-0.023 0.061-0.045 0.089-0.068l0.587 0.33-2.446 1.361c-0.353 0.229-0.584 0.622-0.584 1.069 0 0.001 0 0.002 0 0.003v-0 3.115c0 0.152 0.070 0.295 0.19 0.389 0.317 0.249 0.727 0.539 1.083 0.761-2.435 0.167-4.803-0.528-6.737-1.98v-2.587z"></path>
<path  d="M31.259 20.781c-0.312-0.2-0.693-0.319-1.102-0.319-0.329 0-0.641 0.077-0.917 0.215l0.012-0.005-6.12 2.957c-0.022-1.148-0.956-2.070-2.106-2.072l-3.51 0.001c-1.73-1.504-3.941-2.425-5.952-2.473-1.983-0.047-3.762-0.060-4.592-0.064v-1.002h-6.972v11.516h6.972v-1.379c1.911 1.098 6.939 3.846 9.325 3.846 0.053 0 0.107-0.001 0.157-0.005 4.196-0.235 14.091-7.198 14.743-7.66 0.622-0.367 1.033-1.033 1.034-1.796v-0c0-0.002 0-0.004 0-0.006 0-0.736-0.385-1.382-0.965-1.747l-0.009-0.005zM5.98 28.542h-4.988v-9.533h4.988v9.533zM30.687 23.485c-0.017 0.009-0.031 0.018-0.045 0.028l0.001-0.001c-0.103 0.073-10.281 7.271-14.245 7.493-0.035 0.002-0.077 0.003-0.12 0.003h-0c-2.093 0-7.195-2.753-9.307-4.001v-6.997c0.827 0.003 2.596 0.017 4.569 0.063 1.837 0.044 3.876 0.921 5.455 2.346l0.141 0.127h3.888c0.617 0.001 1.118 0.501 1.119 1.118v0c-0 0.618-0.501 1.119-1.119 1.119h-7.142v0.991h7.142c0.685 0 1.288-0.333 1.673-0.839l6.984-3.373c0.138-0.070 0.301-0.112 0.474-0.112 0.214 0 0.413 0.063 0.579 0.172l-0.004-0.003c0.323 0.202 0.508 0.537 0.508 0.918-0.001 0.404-0.221 0.756-0.548 0.943l-0.005 0.003zM16.611 12.159h-0.991v0.92h0.991v-0.92zM16.611 13.992h-0.991v0.92h0.991v-0.92zM16.611 15.827h-0.991v0.919h0.991v-0.92z"></path>
</symbol>
<symbol id="author" viewBox="0 0 27 32">
<path d="M-0.102 31.84c3.441 0 23.348 0 26.785 0 0.133-3.061-0.086-8.139-1.964-10.556l-0.068-0.087-4.104-2.065c0.089-0.301 0.133-0.577 0.151-0.78 0.020-0.243-0.013-0.472-0.1-0.679-0.677-1.623-2.11-2.477-2.898-2.842 0.24-0.485 0.395-1.005 0.47-1.537 0.446-0.126 0.805-0.48 0.922-0.953l0.479-1.95c0.085-0.344 0.032-0.701-0.151-1.004-0.078-0.131-0.18-0.241-0.294-0.335 1.351-3.074-0.911-5.972-1.035-6.125-2.45-2.654-5.545-2.158-5.708-2.128-4.466 0.937-6.19 4.367-5.217 8.389-0.288 0.32-0.409 0.766-0.302 1.203l0.481 1.952c0.117 0.469 0.473 0.822 0.916 0.95 0.137 0.974 0.548 1.855 1.152 2.565v1.546c-6.409 3.289-2.348 1.191-7.484 3.794-0.010 0.049-2.41 2.604-2.053 10.179l0.022 0.463zM25.752 30.868h-4.408v-1.856l2.916-6.688c1.461 2.429 1.515 7.067 1.493 8.544zM19.735 18.27c-0.17 1.958-1.242 1.366-1.903 2.875-0.52-0.573-0.677-1.261-0.537-1.997 0.253-1.351-0.57-1.753-0.367-3.172l0.031-0.033v-0.004c0.017-0.020 0.18-0.213 0.227-0.274 1.744 0.762 2.584 2.179 2.55 2.606zM10.379 16.731c0.81 0.563 1.787 0.895 2.838 0.895 0.99 0 1.93-0.289 2.736-0.82 0.112 1.116 0.547 1.34 0.393 2.161-0.029 0.152-0.045 0.303-0.054 0.45l-3.002 3.39-3.838-4.335 0.926-0.485v-1.257zM9.172 12.581v-1.88c0-0.692 0-3.438 0-3.303 0.467-0.866 1.104-1.494 1.896-1.87 2.12 1.202 4.56 2.996 6.197 4.801-0.002 2.299 0.006 2.305-0.009 2.494l-0.001 0.012c-0.128 2.088-1.841 3.818-4.038 3.818-2.136 0-3.909-1.68-4.037-3.839-0.007-0.077-0.008-0.155-0.008-0.234zM8.574 18.941l4.716 5.327 3.166-3.576c0.072 0.209 0.174 0.406 0.29 0.597l-3.456 4.331-5.154-6.459 0.438-0.22zM18.23 11.8v-1.501c0.042-0.049 0.402-0.462 0.36-0.414 0.020 0.76 0.102-0.137-0.36 1.914zM12.562 1.754c0.192 0.012 2.765-0.392 4.799 1.808 0.080 0.101 1.736 2.238 1.071 4.577-0.228-1.041-0.624-2.374-1.252-3.010l-0.686 0.684c0.619 0.628 1.026 2.542 1.181 3.534-2.84-2.978-6.504-4.863-6.555-4.895-0.184 0.115-1.734 0.41-2.86 2.603l-0.054 0.105v1.611c-0.048 0-0.19 0.002-0.142 0.002-0.716-3.461 0.655-6.211 4.497-7.018zM7.963 9.772l0.244 0.989v1.040l-0.405-1.643c-0.059-0.245 0.122-0.338 0.161-0.386zM7.253 19.606l6.037 7.566 4.085-5.119c0.444 0.398 0.658 0.455 1.6 0.94l-0.318-1.080c-0.081-0.274 0.239-0.714 0.431-0.916 0.43-0.234 0.789-0.568 1.058-0.979l3.333 1.677-3.101 7.115v2.059h-14.176v-2.059l-3.103-7.114 4.153-2.089zM2.321 22.327l2.916 6.686v1.855h-4.408c-0.022-1.476 0.033-6.112 1.492-8.542z"></path>
</symbol>
<symbol id="guarantee" viewBox="0 0 27 32">
<path d="M0.529 13.737c0 0.349-0.529 0.349-0.529 0 0-7.418 6.004-13.434 13.407-13.434 7.406 0 13.407 6.016 13.407 13.434 0 0.349-0.525 0.349-0.525 0 0-5.014-8.223-5.017-8.223 0 0 0.349-0.541 0.349-0.541 0 0-5.001-8.235-5.001-8.235 0 0 0.349-0.541 0.349-0.541 0 0-4.992-8.219-5.027-8.219 0zM8.796 11.79c0.142-2.886 0.595-5.474 1.253-7.45 0.525-1.57 1.19-2.762 1.943-3.432-5.653 0.618-10.229 4.913-11.252 10.482 1.946-2.813 6.441-2.588 8.055 0.4zM17.483 11.66c-0.146-2.775-0.586-5.258-1.218-7.152-1.633-4.9-4.083-4.9-5.716 0-0.633 1.893-1.070 4.377-1.219 7.152 1.757-2.991 6.396-2.991 8.153 0zM26.073 11.39c-1.019-5.569-5.596-9.863-11.252-10.482 0.756 0.669 1.418 1.862 1.943 3.432 0.658 1.976 1.111 4.564 1.253 7.45 1.624-3.003 6.131-3.181 8.055-0.4z"></path>
<path d="M11.648 19.884v-2.728c-0.491 0.327-0.877 0.831-0.877 1.446 0 0.599 0.392 0.996 0.877 1.282zM12.176 20.731c-0.94-0.431-1.931-0.936-1.931-2.128 0-1.231 0.934-1.846 1.931-2.306v4.435z"></path>
<path d="M15.166 24v2.759c0.497-0.33 0.886-0.837 0.886-1.453 0-0.606-0.399-1.015-0.886-1.307zM14.641 23.15c0.943 0.438 1.94 0.958 1.94 2.157 0 1.234-0.94 1.849-1.94 2.306v-4.462z"></path>
<path d="M15.166 14.051c2.165 0.501 4.39 2.125 4.39 4.551 0 2.077-3.504 2.001-3.504 0 0-0.618-0.389-1.126-0.886-1.453v3.882c2.003 0.656 4.396 1.833 4.396 4.275 0 2.429-2.225 4.050-4.396 4.548-0.009 2.312-3.513 2.309-3.519-0.003-1.234-0.285-2.307-0.863-3.083-1.627-0.813-0.806-1.295-1.817-1.295-2.918 0-2.046 3.5-2.046 3.5 0 0 0.612 0.386 1.116 0.877 1.443v-3.879c-1.988-0.644-4.393-1.855-4.393-4.275 0-2.429 2.225-4.050 4.393-4.548 0.010-2.312 3.513-2.309 3.519 0.003zM12.175 14.057v0.422c-2.060 0.409-4.396 1.732-4.396 4.117 0 2.293 2.564 3.321 4.396 3.888v5.125c-0.991-0.454-1.931-1.066-1.931-2.303 0-1.351-2.45-1.351-2.45 0 0 0.955 0.424 1.836 1.139 2.54 0.908 0.901 2.010 1.329 3.241 1.573v0.425c0 1.627 2.466 1.627 2.466 0v-0.422c2.067-0.412 4.393-1.735 4.393-4.117 0-2.315-2.557-3.311-4.393-3.891v-5.122c0.994 0.454 1.94 1.066 1.94 2.309 0 1.316 2.447 1.37 2.447 0 0-2.382-2.323-3.707-4.387-4.12v-0.425c0-1.627-2.466-1.627-2.466 0z"></path>
</symbol>
<symbol id="teaching" viewBox="0 0 32 32">
<path d="M29.566 0.029h-15.417c-1.004 0-1.82 0.816-1.82 1.818v6.376l-11.454 4.803c-0.13 0.054-0.218 0.177-0.228 0.317s0.059 0.274 0.18 0.346l1.461 0.873v9.307c-0.747 0.17-1.307 0.838-1.307 1.637v0.897c0 0.206 0.167 0.373 0.373 0.373h2.616c0.206 0 0.373-0.167 0.373-0.373v-0.897c0-0.798-0.561-1.465-1.308-1.636v-8.862l1.155 0.691c-0.035 0.266-0.005-0.464-0.017 4.333 0 1.577 4.043 2.422 8.156 2.47v7.263c0 0.375 0.115 0.724 0.312 1.014 0.327 0.483 0.881 0.802 1.508 0.802h15.417c1.003 0 1.818-0.815 1.818-1.817-0 0.050-0.002-1.539 0-27.917 0-0.989-0.819-1.819-1.817-1.819zM3.597 25.507v0.524h-1.87v-0.524c0-0.516 0.418-0.936 0.933-0.936 0.517 0 0.937 0.42 0.937 0.936zM29.566 30.834h-15.417c-0.37 0-0.697-0.187-0.89-0.471-0.116-0.171-0.183-0.377-0.183-0.598v-2.518h17.56v2.519c0 0.584-0.487 1.068-1.070 1.068zM30.636 26.501h-17.561v-3.997c2.008-0.023 8.161-0.465 8.161-2.472-0.002-3.013 0.005-4.235-0.009-4.339l3.349-2.004c0.121-0.072 0.19-0.206 0.18-0.346s-0.098-0.262-0.228-0.317l-11.453-4.803v-3.112h17.561v21.391zM12.702 17.558c-2.069 0-6.053 0.267-7.783 1.396 0.011-3.453-0.12-3.228 0.306-3.521 1.075-0.791 4.15-1.343 7.477-1.343 1.451 0 7.788 0.399 7.788 1.739v3.126c-1.747-1.14-5.71-1.396-7.788-1.396zM13.076 1.847c0-0.591 0.481-1.071 1.072-1.071h15.417c0.592 0 1.070 0.487 1.070 1.071v2.518h-17.56v-2.518zM12.702 8.875l10.858 4.553-2.691 1.609c-1.43-1.417-6.162-1.692-8.168-1.692-2.008 0-6.74 0.276-8.168 1.692l-2.691-1.609 10.859-4.553zM4.919 20.032c0-0.603 2.673-1.729 7.783-1.729 5.113 0 7.788 1.126 7.788 1.729s-2.675 1.729-7.788 1.729c-5.11 0-7.783-1.126-7.783-1.729z"></path>
<path d="M21.856 27.809c-0.68 0-1.234 0.553-1.234 1.232s0.553 1.233 1.234 1.233c0.68 0 1.234-0.553 1.234-1.233s-0.553-1.232-1.234-1.232zM21.856 29.529c-0.269 0-0.488-0.219-0.488-0.488s0.219-0.487 0.488-0.487c0.269 0 0.488 0.218 0.488 0.487s-0.219 0.488-0.488 0.488z"></path>
<path d="M23.279 2.198h-2.846v0.745h2.846v-0.745z"></path>
</symbol>
<symbol id="icon-facebook" viewBox="0 0 32 32">
<path d="M29 0h-26c-1.65 0-3 1.35-3 3v26c0 1.65 1.35 3 3 3h13v-14h-4v-4h4v-2c0-3.306 2.694-6 6-6h4v4h-4c-1.1 0-2 0.9-2 2v2h6l-1 4h-5v14h9c1.65 0 3-1.35 3-3v-26c0-1.65-1.35-3-3-3z"></path>
</symbol>
<symbol id="icon-arrow-back" viewBox="0 0 54 32">
<path fill="#ff6b09" style="fill: var(--color1, #ff6b09)" d="M52 14c1.105 0 2 0.895 2 2s-0.895 2-2 2v-4zM0.586 17.414c-0.781-0.781-0.781-2.047 0-2.828l12.728-12.728c0.781-0.781 2.047-0.781 2.828 0s0.781 2.047 0 2.828l-11.314 11.314 11.314 11.314c0.781 0.781 0.781 2.047 0 2.828s-2.047 0.781-2.828 0l-12.728-12.728zM52 18h-50v-4h50v4z"></path>
</symbol>
<symbol id="icon-arrow-next" viewBox="0 0 54 32">
<path fill="#ff6b09" style="fill: var(--color1, #ff6b09)" d="M2 14c-1.105 0-2 0.895-2 2s0.895 2 2 2v-4zM53.414 17.414c0.781-0.781 0.781-2.047 0-2.828l-12.728-12.728c-0.781-0.781-2.047-0.781-2.828 0s-0.781 2.047 0 2.828l11.314 11.314-11.314 11.314c-0.781 0.781-0.781 2.047 0 2.828s2.047 0.781 2.828 0l12.728-12.728zM2 18h50v-4h-50v4z"></path>
</symbol>
</defs>
</svg>
