<svg aria-hidden="true" style="position: absolute; width: 0; height: 0; overflow: hidden;" version="1.1" xmlns="http://www.w3.org/2000/svg" xmlns:xlink="http://www.w3.org/1999/xlink">
<defs>
<symbol id="icon-fire" viewBox="0 0 26 32">
<path fill="#ff6b09" style="fill: var(--color1, #ff6b09)" d="M22.642 16.003c-0.275-0.613-0.654-1.216-1.208-1.912-1.398-1.749-1.824-5.649-1.829-5.686-0.019-0.187-0.152-0.341-0.327-0.397-0.18-0.056-0.374-0.005-0.502 0.136-1.668 1.856-0.967 4.723-0.588 5.869 0.104 0.313 0.218 0.683 0.298 1.057 0.616 3.025-0.573 4.396-0.853 4.672-0.27 0.075-0.455 0.037-0.625-0.145-0.588-0.641-0.782-2.74-0.507-5.476 0.057-0.556 0.043-1.057-0.038-1.524-0.58-3.362-2.704-5.519-3.245-6.275-1.488-2.188-1.639-5.831-1.644-5.864-0.005-0.173-0.104-0.327-0.261-0.402-0.152-0.075-0.336-0.065-0.479 0.033-2.483 1.679-2.269 5.724-1.924 7.982 0.081 0.524 0.237 1.057 0.507 1.73 0.962 2.408-0.19 5.518-0.199 5.546s-0.019 0.051-0.024 0.079c-0.147 0.767-0.393 1.225-0.668 1.225-0.028 0-0.057-0.005-0.090-0.014-0.336-0.070-0.512-0.426-0.516-0.734-0.019-3.989-4.041-5.331-4.084-5.345-0.18-0.056-0.379-0.005-0.502 0.14-0.128 0.145-0.152 0.346-0.066 0.514 0.047 0.098 0.199 0.528 0.095 2.048-0.090 1.365-0.341 2.717-0.744 4.012-0.957 3.105-0.805 6.046-0.796 6.187 0.736 7.964 12.245 9.359 19.075 4.873 0.748-0.491 1.36-1.052 1.81-1.669 2.521-3.46 1.038-8.16-0.066-10.657zM5.135 23.611c0.014 0.257-0.185 0.477-0.445 0.491h-0.028c-0.251 0-0.46-0.192-0.474-0.44-0.043-0.683-0.033-1.398 0.019-2.174 0.019-0.257 0.246-0.449 0.507-0.435 0.261 0.019 0.46 0.243 0.441 0.5-0.052 0.739-0.062 1.412-0.019 2.058zM5.368 19.468c-0.028 0.238-0.232 0.412-0.469 0.412-0.019 0-0.038 0-0.062-0.005-0.256-0.033-0.441-0.262-0.412-0.519l0.227-1.805c0.033-0.252 0.265-0.435 0.531-0.407 0.261 0.033 0.445 0.267 0.412 0.524l-0.227 1.8z"></path>
<path fill="#ff6b09" style="fill: var(--color1, #ff6b09)" d="M19.437 6.397c-0.258-0.040-0.436-0.278-0.396-0.533 0.030-0.19 0.201-1.163 0.665-1.652 0.179-0.189 0.478-0.198 0.67-0.021s0.2 0.472 0.021 0.661c-0.197 0.207-0.364 0.8-0.42 1.154-0.040 0.252-0.279 0.429-0.541 0.39z"></path>
<path fill="#ff6b09" style="fill: var(--color1, #ff6b09)" d="M2.164 8.727c-0.091-0.348-0.316-0.921-0.532-1.109-0.197-0.17-0.217-0.466-0.044-0.66s0.471-0.214 0.669-0.043c0.511 0.442 0.777 1.393 0.826 1.579 0.065 0.25-0.088 0.504-0.341 0.569-0.259 0.064-0.513-0.090-0.577-0.336z"></path>
</symbol>
<symbol id="icon-menu-open" viewBox="0 0 55 32">
<path d="M0 32h54.857v-5.333h-54.857v5.333zM0 18.667h54.857v-5.333h-54.857v5.333zM0 0v5.333h54.857v-5.333h-54.857z"></path>
</symbol>
<symbol id="icon-menu-close" viewBox="0 0 32 32">
<path d="M13.401 16l-13.401 13.401 2.599 2.599 13.401-13.401 13.401 13.401 2.599-2.599-13.401-13.401 13.401-13.401-2.599-2.599-13.401 13.401-13.401-13.401-2.599 2.599 13.401 13.401z"></path>
</symbol>
<symbol id="icon-instagram" viewBox="0 0 32 32">
<path fill="#000" style="fill: var(--color1, #000)" d="M31.452 5.724c-0.291-2.729-2.447-4.885-5.176-5.176-6.844-0.73-13.709-0.73-20.553 0-2.729 0.291-4.885 2.447-5.176 5.176-0.73 6.844-0.73 13.709 0 20.553 0.291 2.729 2.447 4.885 5.176 5.176 6.844 0.73 13.709 0.73 20.553 0 2.729-0.291 4.884-2.447 5.176-5.176 0.73-6.844 0.73-13.708 0-20.553z"></path>
<path fill="#000" style="fill: var(--color1, #000)" d="M29.712 6.881c-0.258-2.422-2.171-4.334-4.593-4.593-6.073-0.648-12.165-0.648-18.238 0-2.422 0.259-4.334 2.171-4.593 4.593-0.648 6.073-0.648 12.165 0 18.238 0.259 2.422 2.171 4.335 4.593 4.593 6.073 0.648 12.165 0.648 18.238 0 2.422-0.258 4.335-2.171 4.593-4.593 0.648-6.073 0.648-12.164 0-18.238z"></path>
<path fill="#000" style="fill: var(--color1, #000)" d="M0.48 25.613c0.022 0.221 0.045 0.442 0.068 0.664 0.291 2.729 2.447 4.884 5.176 5.176 6.844 0.73 13.709 0.73 20.552 0 2.729-0.291 4.885-2.447 5.176-5.176 0.024-0.221 0.046-0.442 0.069-0.664h-31.041z"></path>
<path fill="#000" style="fill: var(--color1, #000)" d="M31.452 26.276c0.393-3.678 0.574-7.361 0.544-11.044l-7.314-7.314c-0.914-1.043-2.249-1.694-3.817-1.751-3.225-0.116-6.461-0.11-9.687 0-2.679 0.092-4.553 1.893-5.033 4.54-0.085 0.467-0.136 0.941-0.202 1.411v7.759c0.037 0.252 0.091 0.502 0.108 0.755 0.107 1.61 0.769 2.989 1.828 3.922l7.443 7.443c3.653 0.026 7.306-0.156 10.954-0.545 2.729-0.291 4.884-2.447 5.176-5.176z"></path>
<path fill="#000" style="fill: var(--color1, #000)" d="M31.452 26.276c-0.291 2.729-2.447 4.885-5.176 5.176-3.647 0.389-7.301 0.571-10.953 0.545l-7.432-7.432c0.862 0.754 1.985 1.213 3.288 1.262 3.225 0.121 6.461 0.118 9.686 0.002 2.917-0.106 5.028-2.264 5.119-5.181 0.097-3.097 0.097-6.202 0-9.3-0.042-1.346-0.514-2.53-1.297-3.426l7.31 7.31c0.029 3.682-0.152 7.366-0.545 11.044z"></path>
<path fill="#000" style="fill: var(--color1, #000)" d="M19.776 12.535c-0.937-1.020-2.282-1.66-3.776-1.66-2.831 0-5.125 2.295-5.125 5.126 0 1.494 0.64 2.839 1.66 3.776l11.859 11.859c0.628-0.055 1.255-0.115 1.883-0.182 2.729-0.291 4.885-2.447 5.176-5.176 0.067-0.627 0.128-1.255 0.182-1.883l-11.859-11.859z"></path>
<path fill="#000" style="fill: var(--color1, #000)" d="M31.938 19.447l-9.544-9.544c-0.223-0.292-0.573-0.482-0.969-0.482-0.673 0-1.22 0.546-1.22 1.22 0 0.396 0.19 0.747 0.482 0.969l11.080 11.080c0.075-1.081 0.132-2.162 0.171-3.243z"></path>
<path fill="#000" style="fill: var(--color1, #000)" d="M5.943 12.119c0.067-0.471 0.117-0.944 0.202-1.411 0.48-2.647 2.354-4.447 5.033-4.54 3.226-0.111 6.461-0.117 9.687-0 2.916 0.105 5.028 2.264 5.119 5.181 0.097 3.097 0.097 6.202 0 9.3-0.091 2.917-2.202 5.076-5.119 5.181-3.225 0.116-6.462 0.119-9.687-0.002-2.916-0.11-4.933-2.274-5.128-5.195-0.017-0.253-0.071-0.503-0.108-0.755 0-2.586 0-5.173 0-7.759zM16.003 24.101c1.476 0 2.954 0.044 4.428-0.010 2.311-0.086 3.733-1.465 3.787-3.774 0.067-2.877 0.067-5.758 0-8.636-0.054-2.309-1.477-3.72-3.787-3.769-2.932-0.062-5.868-0.062-8.8 0-2.293 0.048-3.719 1.431-3.781 3.714-0.079 2.914-0.079 5.832 0 8.746 0.062 2.283 1.488 3.634 3.781 3.719 1.456 0.054 2.915 0.010 4.372 0.010z"></path>
<path fill="#fff" style="fill: var(--color2, #fff)" d="M5.943 12.119c0.067-0.471 0.117-0.944 0.202-1.411 0.48-2.647 2.354-4.447 5.033-4.54 3.226-0.111 6.461-0.117 9.687-0 2.916 0.105 5.028 2.264 5.119 5.181 0.097 3.097 0.097 6.202 0 9.3-0.091 2.917-2.202 5.076-5.119 5.181-3.225 0.116-6.462 0.119-9.687-0.002-2.916-0.11-4.933-2.274-5.128-5.195-0.017-0.253-0.071-0.503-0.108-0.755 0-2.586 0-5.173 0-7.759zM16.003 24.101c1.476 0 2.954 0.044 4.428-0.010 2.311-0.086 3.733-1.465 3.787-3.774 0.067-2.877 0.067-5.758 0-8.636-0.054-2.309-1.477-3.72-3.787-3.769-2.932-0.062-5.868-0.062-8.8 0-2.293 0.048-3.719 1.431-3.781 3.714-0.079 2.914-0.079 5.832 0 8.746 0.062 2.283 1.488 3.634 3.781 3.719 1.456 0.054 2.915 0.010 4.372 0.010z"></path>
<path fill="#fff" style="fill: var(--color2, #fff)" d="M16 10.875c-2.831 0-5.125 2.295-5.125 5.125s2.295 5.126 5.125 5.126c2.831 0 5.126-2.295 5.126-5.126s-2.295-5.125-5.126-5.125zM16 19.361c-1.856 0-3.361-1.505-3.361-3.361s1.505-3.361 3.361-3.361c1.856 0 3.361 1.505 3.361 3.361s-1.505 3.361-3.361 3.361z"></path>
<path fill="#fff" style="fill: var(--color2, #fff)" d="M22.644 10.641c0 0.673-0.546 1.219-1.219 1.219s-1.22-0.546-1.22-1.219c0-0.674 0.546-1.22 1.22-1.22s1.219 0.546 1.219 1.22z"></path>
</symbol>
<symbol id="icon-phone" viewBox="0 0 34 32">
<path d="M4.902 0.003c-0.542 0.025-1.075 0.253-1.465 0.678l-2.731 2.969c0.004-0.009-0.011-0.008-0.088 0.101-0.041 0.056-0.073 0.118-0.095 0.184-1.112 3.502-0.366 7.354 1.449 11.018s4.711 7.17 8.035 10.047 7.075 5.128 10.651 6.244c3.576 1.116 7.044 1.102 9.614-0.742 0.028-0.020 0.054-0.043 0.078-0.067 0.067-0.067 0.070-0.075 0.059-0.065l0.010-0.013 2.718-2.956c0.781-0.849 0.718-2.184-0.141-2.956l-6.448-5.799c-0.859-0.772-2.208-0.711-2.989 0.138l-2.918 3.173c-2.368-0.678-4.393-1.828-6.34-3.579s-3.297-3.637-4.203-5.905l2.917-3.173c0.781-0.849 0.719-2.184-0.14-2.956l-6.448-5.799c-0.429-0.386-0.982-0.564-1.524-0.539l-0.001 0zM4.963 1.304c0.2-0.009 0.403 0.060 0.569 0.209l6.448 5.799c0.332 0.299 0.355 0.776 0.053 1.104l-3.224 3.504c-0.081 0.089-0.136 0.197-0.159 0.315s-0.013 0.239 0.028 0.351c0.979 2.641 2.557 4.807 4.729 6.761s4.5 3.304 7.251 4.017c0.117 0.030 0.241 0.029 0.357-0.005s0.221-0.099 0.302-0.187l3.225-3.505c0.302-0.328 0.784-0.35 1.116-0.051l6.449 5.8c0.332 0.299 0.354 0.775 0.052 1.103l-2.696 2.931c-2.109 1.497-5.080 1.581-8.406 0.542-3.34-1.043-6.966-3.202-10.175-5.98s-6.002-6.169-7.718-9.633c-1.699-3.429-2.315-6.895-1.381-9.95l2.634-2.862c0.151-0.164 0.348-0.252 0.547-0.261l0 0z"></path>
</symbol>
</defs>
</svg>
