<svg width="458" height="629" viewBox="0 0 458 629" fill="none" xmlns="http://www.w3.org/2000/svg">
<g filter="url(#filter0_d_1_3448)">
<path d="M427.586 321.94C422.088 309.614 414.504 297.476 403.414 283.456C375.45 248.266 366.919 169.795 366.824 169.042C366.445 165.278 363.791 162.173 360.283 161.044C356.681 159.915 352.795 160.95 350.236 163.773C316.869 201.127 330.898 258.805 338.481 281.857C340.567 288.161 342.842 295.594 344.452 303.121C356.775 363.998 332.982 391.567 327.39 397.118C321.987 398.624 318.29 397.871 314.877 394.201C303.123 381.311 299.237 339.064 304.735 284.021C305.873 272.824 305.588 262.756 303.976 253.347C292.381 185.693 249.867 142.297 239.044 127.077C209.279 83.0428 206.246 9.74598 206.151 9.08734C206.056 5.60598 204.066 2.50098 200.938 0.995525C197.904 -0.50993 194.208 -0.321747 191.364 1.65416C141.693 35.4328 145.959 116.821 152.878 162.267C154.49 172.806 157.618 183.532 163.021 197.081C182.264 245.538 159.229 308.108 159.04 308.673C158.85 309.237 158.661 309.708 158.566 310.272C155.627 325.703 150.698 334.924 145.2 334.924C144.631 334.924 144.063 334.83 143.399 334.642C136.669 333.231 133.162 326.08 133.067 319.87C132.688 239.61 52.2096 212.606 51.3565 212.324C47.7544 211.195 43.7731 212.23 41.3086 215.146C38.7492 218.063 38.2752 222.109 39.9815 225.496C40.9294 227.472 43.9627 236.129 41.8773 266.708C40.0763 294.183 35.0523 321.375 26.995 347.438C7.8471 409.915 10.8804 469.098 11.07 471.921C25.794 632.164 256.049 660.243 392.701 569.963C407.678 560.084 419.906 548.793 428.912 536.373C479.342 466.746 449.672 372.184 427.586 321.94ZM77.3303 475.026C77.6147 480.201 73.6335 484.623 68.4199 484.905H67.8512C62.8272 484.905 58.6564 481.047 58.372 476.061C57.5189 462.323 57.7085 447.927 58.7512 432.308C59.1303 427.133 63.6803 423.276 68.8939 423.557C74.1074 423.933 78.0887 428.45 77.7095 433.625C76.6659 448.492 76.4772 462.041 77.3303 475.026ZM81.9742 391.661C81.4054 396.46 77.3294 399.941 72.5898 399.941C72.2106 399.941 71.8315 399.941 71.3575 399.847C66.2388 399.188 62.5419 394.578 63.1106 389.403L67.6606 353.084C68.3242 348.003 72.969 344.333 78.2773 344.898C83.4908 345.556 87.1877 350.261 86.5242 355.436L81.9742 391.661Z" fill="#3D3D3D"/>
<path d="M363.454 128.66C358.284 127.865 354.739 123.069 355.536 117.937C356.128 114.114 359.553 94.5436 368.847 84.7026C372.424 80.9079 378.414 80.7103 382.247 84.2754C386.065 87.8264 386.259 93.7814 382.677 97.5761C378.743 101.743 375.391 113.669 374.272 120.805C373.472 125.882 368.701 129.446 363.454 128.66Z" fill="#3D3D3D"/>
<path d="M17.8818 175.528C16.0675 168.531 11.5592 156.991 7.23196 153.223C3.29336 149.796 2.89998 143.851 6.35229 139.946C9.79607 136.032 15.7803 135.632 19.7283 139.073C29.9431 147.963 35.2799 167.107 36.2477 170.851C37.5435 175.882 34.4893 181 29.4255 182.295C24.2499 183.587 19.1719 180.476 17.8818 175.528Z" fill="#3D3D3D"/>
</g>
<defs>
<filter id="filter0_d_1_3448" x="0" y="0" width="460.594" height="628.868" filterUnits="userSpaceOnUse" color-interpolation-filters="sRGB">
<feFlood flood-opacity="0" result="BackgroundImageFix"/>
<feColorMatrix in="SourceAlpha" type="matrix" values="0 0 0 0 0 0 0 0 0 0 0 0 0 0 0 0 0 0 127 0" result="hardAlpha"/>
<feOffset dy="4"/>
<feGaussianBlur stdDeviation="2"/>
<feComposite in2="hardAlpha" operator="out"/>
<feColorMatrix type="matrix" values="0 0 0 0 0 0 0 0 0 0 0 0 0 0 0 0 0 0 0.25 0"/>
<feBlend mode="normal" in2="BackgroundImageFix" result="effect1_dropShadow_1_3448"/>
<feBlend mode="normal" in="SourceGraphic" in2="effect1_dropShadow_1_3448" result="shape"/>
</filter>
</defs>
</svg>
